<svg width="318" height="181" viewBox="0 0 318 181" fill="none" xmlns="http://www.w3.org/2000/svg">
<path d="M0 10C0 4.47715 4.47715 0 10 0H308C313.523 0 318 4.47715 318 10V181H0V10Z" fill="#173F5F"/>
<line y1="30.5" x2="318" y2="30.5" stroke="black" stroke-opacity="0.4"/>
<circle cx="15" cy="15" r="5" fill="black" fill-opacity="0.4"/>
<circle cx="30" cy="15" r="5" fill="black" fill-opacity="0.4"/>
<circle cx="45" cy="15" r="5" fill="black" fill-opacity="0.4"/>
<rect x="20" y="51.9756" width="278" height="39.0244" rx="5" fill="black" fill-opacity="0.4"/>
<path d="M47.0068 73.3408C47.0068 73.9333 46.8587 74.4391 46.5625 74.8584C46.2708 75.2731 45.8607 75.5898 45.332 75.8086C44.8034 76.0273 44.1813 76.1367 43.4658 76.1367C43.0876 76.1367 42.7298 76.1185 42.3926 76.082C42.0553 76.0456 41.7454 75.9932 41.4629 75.9248C41.1803 75.8564 40.932 75.7721 40.7178 75.6719V74.5576C41.0596 74.6989 41.4766 74.8311 41.9688 74.9541C42.4609 75.0726 42.9759 75.1318 43.5137 75.1318C44.015 75.1318 44.4388 75.0658 44.7852 74.9336C45.1315 74.7969 45.3936 74.6032 45.5713 74.3525C45.7536 74.0973 45.8447 73.792 45.8447 73.4365C45.8447 73.0947 45.7695 72.8099 45.6191 72.582C45.4688 72.3496 45.2181 72.14 44.8672 71.9531C44.5208 71.7617 44.0469 71.5589 43.4453 71.3447C43.0215 71.1943 42.6478 71.0303 42.3242 70.8525C42.0007 70.6702 41.7295 70.4652 41.5107 70.2373C41.292 70.0094 41.1257 69.7451 41.0117 69.4443C40.9023 69.1436 40.8477 68.7995 40.8477 68.4121C40.8477 67.8789 40.9821 67.4232 41.251 67.0449C41.5244 66.6621 41.9004 66.3704 42.3789 66.1699C42.862 65.9648 43.4157 65.8623 44.04 65.8623C44.5732 65.8623 45.0654 65.9124 45.5166 66.0127C45.9723 66.113 46.3893 66.2474 46.7676 66.416L46.4053 67.4141C46.0452 67.2637 45.6624 67.1383 45.2568 67.0381C44.8558 66.9378 44.4411 66.8877 44.0127 66.8877C43.5843 66.8877 43.222 66.9515 42.9258 67.0791C42.6341 67.2021 42.4108 67.3776 42.2559 67.6055C42.1009 67.8333 42.0234 68.1045 42.0234 68.4189C42.0234 68.7699 42.0964 69.0615 42.2422 69.2939C42.3926 69.5264 42.6296 69.7337 42.9531 69.916C43.2812 70.0938 43.7142 70.2806 44.252 70.4766C44.8398 70.6908 45.3389 70.9186 45.749 71.1602C46.1592 71.3971 46.4714 71.6888 46.6855 72.0352C46.8997 72.377 47.0068 72.8122 47.0068 73.3408ZM51.8809 76.1367C51.2064 76.1367 50.6117 75.9977 50.0967 75.7197C49.5817 75.4417 49.1807 75.0179 48.8936 74.4482C48.6064 73.8786 48.4629 73.1608 48.4629 72.2949C48.4629 71.388 48.6133 70.6475 48.9141 70.0732C49.2194 69.4945 49.6387 69.0661 50.1719 68.7881C50.7051 68.5101 51.3112 68.3711 51.9902 68.3711C52.3639 68.3711 52.724 68.4098 53.0703 68.4873C53.4212 68.5602 53.7083 68.6536 53.9316 68.7676L53.5898 69.7178C53.362 69.6266 53.0977 69.5446 52.7969 69.4717C52.5007 69.3988 52.2227 69.3623 51.9629 69.3623C51.4434 69.3623 51.0104 69.474 50.6641 69.6973C50.3223 69.9206 50.0648 70.2487 49.8916 70.6816C49.723 71.1146 49.6387 71.6478 49.6387 72.2812C49.6387 72.8874 49.7207 73.4046 49.8848 73.833C50.0534 74.2614 50.3018 74.5895 50.6299 74.8174C50.9626 75.0407 51.3773 75.1523 51.874 75.1523C52.2705 75.1523 52.6283 75.1113 52.9473 75.0293C53.2663 74.9427 53.5557 74.8424 53.8154 74.7285V75.7402C53.5648 75.8678 53.2845 75.9658 52.9746 76.0342C52.6693 76.1025 52.3047 76.1367 51.8809 76.1367ZM56.7275 68.5078V76H55.5928V68.5078H56.7275ZM56.1738 65.7051C56.3607 65.7051 56.5202 65.7666 56.6523 65.8896C56.7891 66.0081 56.8574 66.195 56.8574 66.4502C56.8574 66.7008 56.7891 66.8877 56.6523 67.0107C56.5202 67.1338 56.3607 67.1953 56.1738 67.1953C55.9779 67.1953 55.8138 67.1338 55.6816 67.0107C55.554 66.8877 55.4902 66.7008 55.4902 66.4502C55.4902 66.195 55.554 66.0081 55.6816 65.8896C55.8138 65.7666 55.9779 65.7051 56.1738 65.7051ZM62.0186 68.3711C62.6566 68.3711 63.2035 68.5124 63.6592 68.7949C64.1149 69.0775 64.4635 69.474 64.7051 69.9844C64.9466 70.4902 65.0674 71.0827 65.0674 71.7617V72.4658H59.8926C59.9062 73.3454 60.125 74.0153 60.5488 74.4756C60.9727 74.9359 61.5697 75.166 62.3398 75.166C62.8138 75.166 63.2331 75.1227 63.5977 75.0361C63.9622 74.9495 64.3405 74.8219 64.7324 74.6533V75.6514C64.3542 75.82 63.9782 75.943 63.6045 76.0205C63.2354 76.098 62.7979 76.1367 62.292 76.1367C61.5719 76.1367 60.943 75.9909 60.4053 75.6992C59.8721 75.403 59.4574 74.9701 59.1611 74.4004C58.8649 73.8307 58.7168 73.1335 58.7168 72.3086C58.7168 71.502 58.8512 70.8047 59.1201 70.2168C59.3936 69.6243 59.7764 69.1686 60.2686 68.8496C60.7653 68.5306 61.3486 68.3711 62.0186 68.3711ZM62.0049 69.3008C61.3988 69.3008 60.9157 69.499 60.5557 69.8955C60.1956 70.292 59.9814 70.8457 59.9131 71.5566H63.8779C63.8734 71.11 63.8027 70.7181 63.666 70.3809C63.5339 70.0391 63.3311 69.7747 63.0576 69.5879C62.7842 69.3965 62.4333 69.3008 62.0049 69.3008ZM70.543 68.3711C71.4316 68.3711 72.1038 68.5898 72.5596 69.0273C73.0153 69.4603 73.2432 70.1576 73.2432 71.1191V76H72.1221V71.1943C72.1221 70.57 71.9785 70.1029 71.6914 69.793C71.4089 69.4831 70.9736 69.3281 70.3857 69.3281C69.5563 69.3281 68.973 69.5628 68.6357 70.0322C68.2985 70.5016 68.1299 71.1829 68.1299 72.0762V76H66.9951V68.5078H67.9111L68.082 69.5879H68.1436C68.3031 69.3236 68.5059 69.1025 68.752 68.9248C68.998 68.7425 69.2738 68.6058 69.5791 68.5146C69.8844 68.4189 70.2057 68.3711 70.543 68.3711ZM78.582 76.1367C77.9076 76.1367 77.3128 75.9977 76.7979 75.7197C76.2829 75.4417 75.8818 75.0179 75.5947 74.4482C75.3076 73.8786 75.1641 73.1608 75.1641 72.2949C75.1641 71.388 75.3145 70.6475 75.6152 70.0732C75.9206 69.4945 76.3398 69.0661 76.873 68.7881C77.4062 68.5101 78.0124 68.3711 78.6914 68.3711C79.0651 68.3711 79.4251 68.4098 79.7715 68.4873C80.1224 68.5602 80.4095 68.6536 80.6328 68.7676L80.291 69.7178C80.0632 69.6266 79.7988 69.5446 79.498 69.4717C79.2018 69.3988 78.9238 69.3623 78.6641 69.3623C78.1445 69.3623 77.7116 69.474 77.3652 69.6973C77.0234 69.9206 76.766 70.2487 76.5928 70.6816C76.4242 71.1146 76.3398 71.6478 76.3398 72.2812C76.3398 72.8874 76.4219 73.4046 76.5859 73.833C76.7546 74.2614 77.0029 74.5895 77.3311 74.8174C77.6637 75.0407 78.0785 75.1523 78.5752 75.1523C78.9717 75.1523 79.3294 75.1113 79.6484 75.0293C79.9674 74.9427 80.2568 74.8424 80.5166 74.7285V75.7402C80.266 75.8678 79.9857 75.9658 79.6758 76.0342C79.3704 76.1025 79.0059 76.1367 78.582 76.1367ZM85.1787 68.3711C85.8167 68.3711 86.3636 68.5124 86.8193 68.7949C87.2751 69.0775 87.6237 69.474 87.8652 69.9844C88.1068 70.4902 88.2275 71.0827 88.2275 71.7617V72.4658H83.0527C83.0664 73.3454 83.2852 74.0153 83.709 74.4756C84.1328 74.9359 84.7298 75.166 85.5 75.166C85.974 75.166 86.3932 75.1227 86.7578 75.0361C87.1224 74.9495 87.5007 74.8219 87.8926 74.6533V75.6514C87.5143 75.82 87.1383 75.943 86.7646 76.0205C86.3955 76.098 85.958 76.1367 85.4521 76.1367C84.7321 76.1367 84.1032 75.9909 83.5654 75.6992C83.0322 75.403 82.6175 74.9701 82.3213 74.4004C82.0251 73.8307 81.877 73.1335 81.877 72.3086C81.877 71.502 82.0114 70.8047 82.2803 70.2168C82.5537 69.6243 82.9365 69.1686 83.4287 68.8496C83.9255 68.5306 84.5088 68.3711 85.1787 68.3711ZM85.165 69.3008C84.5589 69.3008 84.0758 69.499 83.7158 69.8955C83.3558 70.292 83.1416 70.8457 83.0732 71.5566H87.0381C87.0335 71.11 86.9629 70.7181 86.8262 70.3809C86.694 70.0391 86.4912 69.7747 86.2178 69.5879C85.9443 69.3965 85.5934 69.3008 85.165 69.3008ZM100.252 72.2402C100.252 72.8555 100.172 73.4046 100.013 73.8877C99.8532 74.3708 99.623 74.7786 99.3223 75.1113C99.0215 75.444 98.6569 75.6992 98.2285 75.877C97.8047 76.0501 97.3239 76.1367 96.7861 76.1367C96.2848 76.1367 95.8245 76.0501 95.4053 75.877C94.9906 75.6992 94.6305 75.444 94.3252 75.1113C94.0244 74.7786 93.7897 74.3708 93.6211 73.8877C93.457 73.4046 93.375 72.8555 93.375 72.2402C93.375 71.4199 93.514 70.7227 93.792 70.1484C94.07 69.5697 94.4665 69.1299 94.9814 68.8291C95.501 68.5238 96.1185 68.3711 96.834 68.3711C97.5176 68.3711 98.1146 68.5238 98.625 68.8291C99.14 69.1344 99.5387 69.5765 99.8213 70.1553C100.108 70.7295 100.252 71.4245 100.252 72.2402ZM94.5508 72.2402C94.5508 72.8418 94.6305 73.3636 94.79 73.8057C94.9495 74.2477 95.1956 74.5895 95.5283 74.8311C95.861 75.0726 96.2894 75.1934 96.8135 75.1934C97.333 75.1934 97.7591 75.0726 98.0918 74.8311C98.429 74.5895 98.6774 74.2477 98.8369 73.8057C98.9964 73.3636 99.0762 72.8418 99.0762 72.2402C99.0762 71.6432 98.9964 71.1283 98.8369 70.6953C98.6774 70.2578 98.4313 69.9206 98.0986 69.6836C97.766 69.4466 97.3353 69.3281 96.8066 69.3281C96.0273 69.3281 95.4554 69.5856 95.0908 70.1006C94.7308 70.6156 94.5508 71.3288 94.5508 72.2402ZM105.55 69.3965H103.684V76H102.549V69.3965H101.223V68.8496L102.549 68.4736V67.9746C102.549 67.3457 102.642 66.8353 102.829 66.4434C103.016 66.0469 103.287 65.7552 103.643 65.5684C103.998 65.3815 104.431 65.2881 104.941 65.2881C105.229 65.2881 105.491 65.3132 105.728 65.3633C105.969 65.4134 106.181 65.4704 106.363 65.5342L106.069 66.4297C105.914 66.3796 105.739 66.334 105.543 66.293C105.352 66.2474 105.156 66.2246 104.955 66.2246C104.522 66.2246 104.201 66.3659 103.991 66.6484C103.786 66.9264 103.684 67.3639 103.684 67.9609V68.5078H105.55V69.3965ZM118.312 76H117.15V71.29H111.9V76H110.738V66.0059H111.9V70.2646H117.15V66.0059H118.312V76ZM123.692 68.3848C124.586 68.3848 125.249 68.5853 125.682 68.9863C126.115 69.3874 126.331 70.0277 126.331 70.9072V76H125.504L125.285 74.8926H125.23C125.021 75.166 124.802 75.3962 124.574 75.583C124.346 75.7653 124.082 75.9043 123.781 76C123.485 76.0911 123.12 76.1367 122.688 76.1367C122.232 76.1367 121.826 76.057 121.471 75.8975C121.12 75.738 120.842 75.4964 120.637 75.1729C120.436 74.8493 120.336 74.4391 120.336 73.9424C120.336 73.195 120.632 72.6208 121.225 72.2197C121.817 71.8187 122.719 71.5999 123.932 71.5635L125.224 71.5088V71.0508C125.224 70.4036 125.085 69.9502 124.807 69.6904C124.529 69.4307 124.137 69.3008 123.631 69.3008C123.239 69.3008 122.865 69.3577 122.51 69.4717C122.154 69.5856 121.817 69.7201 121.498 69.875L121.149 69.0137C121.487 68.8405 121.874 68.6924 122.312 68.5693C122.749 68.4463 123.209 68.3848 123.692 68.3848ZM125.21 72.3086L124.068 72.3564C123.134 72.3929 122.476 72.5456 122.093 72.8145C121.71 73.0833 121.519 73.4639 121.519 73.9561C121.519 74.3844 121.648 74.7012 121.908 74.9062C122.168 75.1113 122.512 75.2139 122.94 75.2139C123.606 75.2139 124.15 75.0293 124.574 74.6602C124.998 74.291 125.21 73.7373 125.21 72.999V72.3086ZM132.189 68.3711C133.124 68.3711 133.869 68.6924 134.425 69.335C134.981 69.9775 135.259 70.9437 135.259 72.2334C135.259 73.0856 135.131 73.8011 134.876 74.3799C134.621 74.9587 134.261 75.3962 133.796 75.6924C133.336 75.9886 132.791 76.1367 132.162 76.1367C131.766 76.1367 131.417 76.0843 131.116 75.9795C130.815 75.8747 130.558 75.7334 130.344 75.5557C130.13 75.3779 129.952 75.1842 129.811 74.9746H129.729C129.742 75.1523 129.758 75.3665 129.776 75.6172C129.799 75.8678 129.811 76.0866 129.811 76.2734V79.3496H128.669V68.5078H129.605L129.756 69.6152H129.811C129.956 69.3874 130.134 69.18 130.344 68.9932C130.553 68.8018 130.809 68.6514 131.109 68.542C131.415 68.4281 131.775 68.3711 132.189 68.3711ZM131.991 69.3281C131.472 69.3281 131.052 69.4284 130.733 69.6289C130.419 69.8294 130.189 70.1302 130.043 70.5312C129.897 70.9277 129.82 71.4268 129.811 72.0283V72.2471C129.811 72.8805 129.879 73.416 130.016 73.8535C130.157 74.291 130.387 74.6237 130.706 74.8516C131.03 75.0794 131.463 75.1934 132.005 75.1934C132.47 75.1934 132.857 75.068 133.167 74.8174C133.477 74.5667 133.707 74.2181 133.857 73.7715C134.012 73.3203 134.09 72.8031 134.09 72.2197C134.09 71.3356 133.917 70.6338 133.57 70.1143C133.229 69.5902 132.702 69.3281 131.991 69.3281ZM140.762 68.3711C141.696 68.3711 142.441 68.6924 142.997 69.335C143.553 69.9775 143.831 70.9437 143.831 72.2334C143.831 73.0856 143.703 73.8011 143.448 74.3799C143.193 74.9587 142.833 75.3962 142.368 75.6924C141.908 75.9886 141.363 76.1367 140.734 76.1367C140.338 76.1367 139.989 76.0843 139.688 75.9795C139.388 75.8747 139.13 75.7334 138.916 75.5557C138.702 75.3779 138.524 75.1842 138.383 74.9746H138.301C138.314 75.1523 138.33 75.3665 138.349 75.6172C138.371 75.8678 138.383 76.0866 138.383 76.2734V79.3496H137.241V68.5078H138.178L138.328 69.6152H138.383C138.529 69.3874 138.706 69.18 138.916 68.9932C139.126 68.8018 139.381 68.6514 139.682 68.542C139.987 68.4281 140.347 68.3711 140.762 68.3711ZM140.563 69.3281C140.044 69.3281 139.625 69.4284 139.306 69.6289C138.991 69.8294 138.761 70.1302 138.615 70.5312C138.469 70.9277 138.392 71.4268 138.383 72.0283V72.2471C138.383 72.8805 138.451 73.416 138.588 73.8535C138.729 74.291 138.959 74.6237 139.278 74.8516C139.602 75.0794 140.035 75.1934 140.577 75.1934C141.042 75.1934 141.429 75.068 141.739 74.8174C142.049 74.5667 142.279 74.2181 142.43 73.7715C142.585 73.3203 142.662 72.8031 142.662 72.2197C142.662 71.3356 142.489 70.6338 142.143 70.1143C141.801 69.5902 141.274 69.3281 140.563 69.3281ZM146.948 68.5078V76H145.813V68.5078H146.948ZM146.395 65.7051C146.581 65.7051 146.741 65.7666 146.873 65.8896C147.01 66.0081 147.078 66.195 147.078 66.4502C147.078 66.7008 147.01 66.8877 146.873 67.0107C146.741 67.1338 146.581 67.1953 146.395 67.1953C146.199 67.1953 146.035 67.1338 145.902 67.0107C145.775 66.8877 145.711 66.7008 145.711 66.4502C145.711 66.195 145.775 66.0081 145.902 65.8896C146.035 65.7666 146.199 65.7051 146.395 65.7051ZM152.902 68.3711C153.791 68.3711 154.463 68.5898 154.919 69.0273C155.375 69.4603 155.603 70.1576 155.603 71.1191V76H154.481V71.1943C154.481 70.57 154.338 70.1029 154.051 69.793C153.768 69.4831 153.333 69.3281 152.745 69.3281C151.916 69.3281 151.332 69.5628 150.995 70.0322C150.658 70.5016 150.489 71.1829 150.489 72.0762V76H149.354V68.5078H150.271L150.441 69.5879H150.503C150.662 69.3236 150.865 69.1025 151.111 68.9248C151.357 68.7425 151.633 68.6058 151.938 68.5146C152.244 68.4189 152.565 68.3711 152.902 68.3711ZM160.825 68.3711C161.463 68.3711 162.01 68.5124 162.466 68.7949C162.922 69.0775 163.27 69.474 163.512 69.9844C163.753 70.4902 163.874 71.0827 163.874 71.7617V72.4658H158.699C158.713 73.3454 158.932 74.0153 159.355 74.4756C159.779 74.9359 160.376 75.166 161.146 75.166C161.62 75.166 162.04 75.1227 162.404 75.0361C162.769 74.9495 163.147 74.8219 163.539 74.6533V75.6514C163.161 75.82 162.785 75.943 162.411 76.0205C162.042 76.098 161.604 76.1367 161.099 76.1367C160.379 76.1367 159.75 75.9909 159.212 75.6992C158.679 75.403 158.264 74.9701 157.968 74.4004C157.672 73.8307 157.523 73.1335 157.523 72.3086C157.523 71.502 157.658 70.8047 157.927 70.2168C158.2 69.6243 158.583 69.1686 159.075 68.8496C159.572 68.5306 160.155 68.3711 160.825 68.3711ZM160.812 69.3008C160.205 69.3008 159.722 69.499 159.362 69.8955C159.002 70.292 158.788 70.8457 158.72 71.5566H162.685C162.68 71.11 162.609 70.7181 162.473 70.3809C162.34 70.0391 162.138 69.7747 161.864 69.5879C161.591 69.3965 161.24 69.3008 160.812 69.3008ZM170.648 73.9492C170.648 74.4277 170.528 74.8311 170.286 75.1592C170.049 75.4827 169.707 75.7266 169.261 75.8906C168.819 76.0547 168.29 76.1367 167.675 76.1367C167.151 76.1367 166.697 76.0957 166.314 76.0137C165.932 75.9316 165.597 75.8154 165.31 75.665V74.6191C165.615 74.7695 165.979 74.9062 166.403 75.0293C166.827 75.1523 167.26 75.2139 167.702 75.2139C168.349 75.2139 168.819 75.109 169.11 74.8994C169.402 74.6898 169.548 74.4049 169.548 74.0449C169.548 73.8398 169.489 73.6598 169.37 73.5049C169.256 73.3454 169.062 73.1927 168.789 73.0469C168.516 72.8965 168.137 72.7324 167.654 72.5547C167.176 72.3724 166.761 72.1924 166.41 72.0146C166.064 71.8324 165.795 71.6113 165.604 71.3516C165.417 71.0918 165.323 70.7546 165.323 70.3398C165.323 69.7064 165.578 69.221 166.089 68.8838C166.604 68.542 167.278 68.3711 168.112 68.3711C168.563 68.3711 168.985 68.4167 169.377 68.5078C169.773 68.5944 170.143 68.7129 170.484 68.8633L170.102 69.7725C169.792 69.6403 169.461 69.5286 169.11 69.4375C168.759 69.3464 168.402 69.3008 168.037 69.3008C167.513 69.3008 167.11 69.3874 166.827 69.5605C166.549 69.7337 166.41 69.9707 166.41 70.2715C166.41 70.5039 166.474 70.6953 166.602 70.8457C166.734 70.9961 166.943 71.1374 167.23 71.2695C167.518 71.4017 167.896 71.5566 168.365 71.7344C168.835 71.9076 169.24 72.0876 169.582 72.2744C169.924 72.4567 170.186 72.68 170.368 72.9443C170.555 73.2041 170.648 73.5391 170.648 73.9492ZM177.32 73.9492C177.32 74.4277 177.2 74.8311 176.958 75.1592C176.721 75.4827 176.379 75.7266 175.933 75.8906C175.491 76.0547 174.962 76.1367 174.347 76.1367C173.823 76.1367 173.369 76.0957 172.986 76.0137C172.604 75.9316 172.269 75.8154 171.981 75.665V74.6191C172.287 74.7695 172.651 74.9062 173.075 75.0293C173.499 75.1523 173.932 75.2139 174.374 75.2139C175.021 75.2139 175.491 75.109 175.782 74.8994C176.074 74.6898 176.22 74.4049 176.22 74.0449C176.22 73.8398 176.16 73.6598 176.042 73.5049C175.928 73.3454 175.734 73.1927 175.461 73.0469C175.188 72.8965 174.809 72.7324 174.326 72.5547C173.848 72.3724 173.433 72.1924 173.082 72.0146C172.736 71.8324 172.467 71.6113 172.275 71.3516C172.089 71.0918 171.995 70.7546 171.995 70.3398C171.995 69.7064 172.25 69.221 172.761 68.8838C173.276 68.542 173.95 68.3711 174.784 68.3711C175.235 68.3711 175.657 68.4167 176.049 68.5078C176.445 68.5944 176.814 68.7129 177.156 68.8633L176.773 69.7725C176.464 69.6403 176.133 69.5286 175.782 69.4375C175.431 69.3464 175.074 69.3008 174.709 69.3008C174.185 69.3008 173.782 69.3874 173.499 69.5605C173.221 69.7337 173.082 69.9707 173.082 70.2715C173.082 70.5039 173.146 70.6953 173.273 70.8457C173.406 70.9961 173.615 71.1374 173.902 71.2695C174.189 71.4017 174.568 71.5566 175.037 71.7344C175.507 71.9076 175.912 72.0876 176.254 72.2744C176.596 72.4567 176.858 72.68 177.04 72.9443C177.227 73.2041 177.32 73.5391 177.32 73.9492Z" fill="white"/>
<path d="M20 106C20 103.239 22.2386 101 25 101H293C295.761 101 298 103.239 298 106V156C298 158.761 295.761 161 293 161H25C22.2386 161 20 158.761 20 156V106Z" fill="black" fill-opacity="0.4"/>
<path d="M49.3037 120.907C49.3037 122.033 49.0986 122.974 48.6885 123.73C48.2783 124.482 47.6836 125.05 46.9043 125.433C46.1296 125.811 45.1885 126 44.0811 126H41.3672V116.006H44.3818C45.3981 116.006 46.2731 116.193 47.0068 116.566C47.7406 116.936 48.3057 117.485 48.7021 118.214C49.1032 118.938 49.3037 119.836 49.3037 120.907ZM48.0801 120.948C48.0801 120.05 47.9297 119.31 47.6289 118.727C47.3327 118.143 46.8952 117.71 46.3164 117.428C45.7422 117.141 45.0381 116.997 44.2041 116.997H42.5293V125.002H43.9443C45.3206 125.002 46.3529 124.662 47.041 123.983C47.7337 123.304 48.0801 122.293 48.0801 120.948ZM52.4893 118.508V126H51.3545V118.508H52.4893ZM51.9355 115.705C52.1224 115.705 52.2819 115.767 52.4141 115.89C52.5508 116.008 52.6191 116.195 52.6191 116.45C52.6191 116.701 52.5508 116.888 52.4141 117.011C52.2819 117.134 52.1224 117.195 51.9355 117.195C51.7396 117.195 51.5755 117.134 51.4434 117.011C51.3158 116.888 51.252 116.701 51.252 116.45C51.252 116.195 51.3158 116.008 51.4434 115.89C51.5755 115.767 51.7396 115.705 51.9355 115.705ZM59.7422 123.949C59.7422 124.428 59.6214 124.831 59.3799 125.159C59.1429 125.483 58.8011 125.727 58.3545 125.891C57.9124 126.055 57.3838 126.137 56.7686 126.137C56.2445 126.137 55.791 126.096 55.4082 126.014C55.0254 125.932 54.6904 125.815 54.4033 125.665V124.619C54.7087 124.77 55.0732 124.906 55.4971 125.029C55.9209 125.152 56.3538 125.214 56.7959 125.214C57.443 125.214 57.9124 125.109 58.2041 124.899C58.4958 124.69 58.6416 124.405 58.6416 124.045C58.6416 123.84 58.5824 123.66 58.4639 123.505C58.3499 123.345 58.1562 123.193 57.8828 123.047C57.6094 122.896 57.2311 122.732 56.748 122.555C56.2695 122.372 55.8548 122.192 55.5039 122.015C55.1576 121.832 54.8887 121.611 54.6973 121.352C54.5104 121.092 54.417 120.755 54.417 120.34C54.417 119.706 54.6722 119.221 55.1826 118.884C55.6976 118.542 56.3721 118.371 57.2061 118.371C57.6572 118.371 58.0788 118.417 58.4707 118.508C58.8672 118.594 59.2363 118.713 59.5781 118.863L59.1953 119.772C58.8854 119.64 58.555 119.529 58.2041 119.438C57.8532 119.346 57.4954 119.301 57.1309 119.301C56.6068 119.301 56.2035 119.387 55.9209 119.561C55.6429 119.734 55.5039 119.971 55.5039 120.271C55.5039 120.504 55.5677 120.695 55.6953 120.846C55.8275 120.996 56.0371 121.137 56.3242 121.27C56.6113 121.402 56.9896 121.557 57.459 121.734C57.9284 121.908 58.334 122.088 58.6758 122.274C59.0176 122.457 59.2796 122.68 59.4619 122.944C59.6488 123.204 59.7422 123.539 59.7422 123.949ZM64.5684 126.137C63.8939 126.137 63.2992 125.998 62.7842 125.72C62.2692 125.442 61.8682 125.018 61.5811 124.448C61.2939 123.879 61.1504 123.161 61.1504 122.295C61.1504 121.388 61.3008 120.647 61.6016 120.073C61.9069 119.494 62.3262 119.066 62.8594 118.788C63.3926 118.51 63.9987 118.371 64.6777 118.371C65.0514 118.371 65.4115 118.41 65.7578 118.487C66.1087 118.56 66.3958 118.654 66.6191 118.768L66.2773 119.718C66.0495 119.627 65.7852 119.545 65.4844 119.472C65.1882 119.399 64.9102 119.362 64.6504 119.362C64.1309 119.362 63.6979 119.474 63.3516 119.697C63.0098 119.921 62.7523 120.249 62.5791 120.682C62.4105 121.115 62.3262 121.648 62.3262 122.281C62.3262 122.887 62.4082 123.405 62.5723 123.833C62.7409 124.261 62.9893 124.59 63.3174 124.817C63.6501 125.041 64.0648 125.152 64.5615 125.152C64.958 125.152 65.3158 125.111 65.6348 125.029C65.9538 124.943 66.2432 124.842 66.5029 124.729V125.74C66.2523 125.868 65.972 125.966 65.6621 126.034C65.3568 126.103 64.9922 126.137 64.5684 126.137ZM74.7402 122.24C74.7402 122.855 74.6605 123.405 74.501 123.888C74.3415 124.371 74.1113 124.779 73.8105 125.111C73.5098 125.444 73.1452 125.699 72.7168 125.877C72.293 126.05 71.8122 126.137 71.2744 126.137C70.7731 126.137 70.3128 126.05 69.8936 125.877C69.4788 125.699 69.1188 125.444 68.8135 125.111C68.5127 124.779 68.278 124.371 68.1094 123.888C67.9453 123.405 67.8633 122.855 67.8633 122.24C67.8633 121.42 68.0023 120.723 68.2803 120.148C68.5583 119.57 68.9548 119.13 69.4697 118.829C69.9893 118.524 70.6068 118.371 71.3223 118.371C72.0059 118.371 72.6029 118.524 73.1133 118.829C73.6283 119.134 74.027 119.576 74.3096 120.155C74.5967 120.729 74.7402 121.424 74.7402 122.24ZM69.0391 122.24C69.0391 122.842 69.1188 123.364 69.2783 123.806C69.4378 124.248 69.6839 124.59 70.0166 124.831C70.3493 125.073 70.7777 125.193 71.3018 125.193C71.8213 125.193 72.2474 125.073 72.5801 124.831C72.9173 124.59 73.1657 124.248 73.3252 123.806C73.4847 123.364 73.5645 122.842 73.5645 122.24C73.5645 121.643 73.4847 121.128 73.3252 120.695C73.1657 120.258 72.9196 119.921 72.5869 119.684C72.2542 119.447 71.8236 119.328 71.2949 119.328C70.5156 119.328 69.9437 119.586 69.5791 120.101C69.2191 120.616 69.0391 121.329 69.0391 122.24ZM78.3496 126L75.5059 118.508H76.7227L78.3701 123.04C78.484 123.35 78.6003 123.692 78.7188 124.065C78.8372 124.439 78.9193 124.74 78.9648 124.968H79.0127C79.0674 124.74 79.1585 124.439 79.2861 124.065C79.4137 123.687 79.5299 123.345 79.6348 123.04L81.2822 118.508H82.499L79.6484 126H78.3496ZM86.5869 118.371C87.2249 118.371 87.7718 118.512 88.2275 118.795C88.6833 119.077 89.0319 119.474 89.2734 119.984C89.515 120.49 89.6357 121.083 89.6357 121.762V122.466H84.4609C84.4746 123.345 84.6934 124.015 85.1172 124.476C85.541 124.936 86.138 125.166 86.9082 125.166C87.3822 125.166 87.8014 125.123 88.166 125.036C88.5306 124.95 88.9089 124.822 89.3008 124.653V125.651C88.9225 125.82 88.5465 125.943 88.1729 126.021C87.8037 126.098 87.3662 126.137 86.8604 126.137C86.1403 126.137 85.5114 125.991 84.9736 125.699C84.4404 125.403 84.0257 124.97 83.7295 124.4C83.4333 123.831 83.2852 123.133 83.2852 122.309C83.2852 121.502 83.4196 120.805 83.6885 120.217C83.9619 119.624 84.3447 119.169 84.8369 118.85C85.3337 118.531 85.917 118.371 86.5869 118.371ZM86.5732 119.301C85.9671 119.301 85.484 119.499 85.124 119.896C84.764 120.292 84.5498 120.846 84.4814 121.557H88.4463C88.4417 121.11 88.3711 120.718 88.2344 120.381C88.1022 120.039 87.8994 119.775 87.626 119.588C87.3525 119.396 87.0016 119.301 86.5732 119.301ZM94.9678 118.371C95.1182 118.371 95.2754 118.38 95.4395 118.398C95.6035 118.412 95.7493 118.433 95.877 118.46L95.7334 119.513C95.6104 119.481 95.4736 119.456 95.3232 119.438C95.1729 119.419 95.0316 119.41 94.8994 119.41C94.5986 119.41 94.3138 119.472 94.0449 119.595C93.7806 119.713 93.5482 119.886 93.3477 120.114C93.1471 120.338 92.9899 120.609 92.876 120.928C92.762 121.242 92.7051 121.593 92.7051 121.98V126H91.5635V118.508H92.5068L92.6299 119.889H92.6777C92.8327 119.611 93.0195 119.358 93.2383 119.13C93.457 118.897 93.71 118.713 93.9971 118.576C94.2887 118.439 94.6123 118.371 94.9678 118.371ZM104.333 118.371C104.483 118.371 104.641 118.38 104.805 118.398C104.969 118.412 105.115 118.433 105.242 118.46L105.099 119.513C104.976 119.481 104.839 119.456 104.688 119.438C104.538 119.419 104.397 119.41 104.265 119.41C103.964 119.41 103.679 119.472 103.41 119.595C103.146 119.713 102.913 119.886 102.713 120.114C102.512 120.338 102.355 120.609 102.241 120.928C102.127 121.242 102.07 121.593 102.07 121.98V126H100.929V118.508H101.872L101.995 119.889H102.043C102.198 119.611 102.385 119.358 102.604 119.13C102.822 118.897 103.075 118.713 103.362 118.576C103.654 118.439 103.978 118.371 104.333 118.371ZM109.542 118.371C110.18 118.371 110.727 118.512 111.183 118.795C111.638 119.077 111.987 119.474 112.229 119.984C112.47 120.49 112.591 121.083 112.591 121.762V122.466H107.416C107.43 123.345 107.648 124.015 108.072 124.476C108.496 124.936 109.093 125.166 109.863 125.166C110.337 125.166 110.757 125.123 111.121 125.036C111.486 124.95 111.864 124.822 112.256 124.653V125.651C111.878 125.82 111.502 125.943 111.128 126.021C110.759 126.098 110.321 126.137 109.815 126.137C109.095 126.137 108.466 125.991 107.929 125.699C107.396 125.403 106.981 124.97 106.685 124.4C106.388 123.831 106.24 123.133 106.24 122.309C106.24 121.502 106.375 120.805 106.644 120.217C106.917 119.624 107.3 119.169 107.792 118.85C108.289 118.531 108.872 118.371 109.542 118.371ZM109.528 119.301C108.922 119.301 108.439 119.499 108.079 119.896C107.719 120.292 107.505 120.846 107.437 121.557H111.401C111.397 121.11 111.326 120.718 111.189 120.381C111.057 120.039 110.854 119.775 110.581 119.588C110.308 119.396 109.957 119.301 109.528 119.301ZM119.365 123.949C119.365 124.428 119.244 124.831 119.003 125.159C118.766 125.483 118.424 125.727 117.978 125.891C117.535 126.055 117.007 126.137 116.392 126.137C115.868 126.137 115.414 126.096 115.031 126.014C114.648 125.932 114.313 125.815 114.026 125.665V124.619C114.332 124.77 114.696 124.906 115.12 125.029C115.544 125.152 115.977 125.214 116.419 125.214C117.066 125.214 117.535 125.109 117.827 124.899C118.119 124.69 118.265 124.405 118.265 124.045C118.265 123.84 118.205 123.66 118.087 123.505C117.973 123.345 117.779 123.193 117.506 123.047C117.232 122.896 116.854 122.732 116.371 122.555C115.893 122.372 115.478 122.192 115.127 122.015C114.781 121.832 114.512 121.611 114.32 121.352C114.133 121.092 114.04 120.755 114.04 120.34C114.04 119.706 114.295 119.221 114.806 118.884C115.321 118.542 115.995 118.371 116.829 118.371C117.28 118.371 117.702 118.417 118.094 118.508C118.49 118.594 118.859 118.713 119.201 118.863L118.818 119.772C118.508 119.64 118.178 119.529 117.827 119.438C117.476 119.346 117.118 119.301 116.754 119.301C116.23 119.301 115.826 119.387 115.544 119.561C115.266 119.734 115.127 119.971 115.127 120.271C115.127 120.504 115.191 120.695 115.318 120.846C115.451 120.996 115.66 121.137 115.947 121.27C116.234 121.402 116.613 121.557 117.082 121.734C117.551 121.908 117.957 122.088 118.299 122.274C118.641 122.457 118.903 122.68 119.085 122.944C119.272 123.204 119.365 123.539 119.365 123.949ZM124.075 118.371C124.713 118.371 125.26 118.512 125.716 118.795C126.172 119.077 126.52 119.474 126.762 119.984C127.003 120.49 127.124 121.083 127.124 121.762V122.466H121.949C121.963 123.345 122.182 124.015 122.605 124.476C123.029 124.936 123.626 125.166 124.396 125.166C124.87 125.166 125.29 125.123 125.654 125.036C126.019 124.95 126.397 124.822 126.789 124.653V125.651C126.411 125.82 126.035 125.943 125.661 126.021C125.292 126.098 124.854 126.137 124.349 126.137C123.629 126.137 123 125.991 122.462 125.699C121.929 125.403 121.514 124.97 121.218 124.4C120.922 123.831 120.773 123.133 120.773 122.309C120.773 121.502 120.908 120.805 121.177 120.217C121.45 119.624 121.833 119.169 122.325 118.85C122.822 118.531 123.405 118.371 124.075 118.371ZM124.062 119.301C123.455 119.301 122.972 119.499 122.612 119.896C122.252 120.292 122.038 120.846 121.97 121.557H125.935C125.93 121.11 125.859 120.718 125.723 120.381C125.59 120.039 125.388 119.775 125.114 119.588C124.841 119.396 124.49 119.301 124.062 119.301ZM131.854 118.385C132.748 118.385 133.411 118.585 133.844 118.986C134.277 119.387 134.493 120.028 134.493 120.907V126H133.666L133.447 124.893H133.393C133.183 125.166 132.964 125.396 132.736 125.583C132.508 125.765 132.244 125.904 131.943 126C131.647 126.091 131.283 126.137 130.85 126.137C130.394 126.137 129.988 126.057 129.633 125.897C129.282 125.738 129.004 125.496 128.799 125.173C128.598 124.849 128.498 124.439 128.498 123.942C128.498 123.195 128.794 122.621 129.387 122.22C129.979 121.819 130.882 121.6 132.094 121.563L133.386 121.509V121.051C133.386 120.404 133.247 119.95 132.969 119.69C132.691 119.431 132.299 119.301 131.793 119.301C131.401 119.301 131.027 119.358 130.672 119.472C130.316 119.586 129.979 119.72 129.66 119.875L129.312 119.014C129.649 118.84 130.036 118.692 130.474 118.569C130.911 118.446 131.371 118.385 131.854 118.385ZM133.372 122.309L132.23 122.356C131.296 122.393 130.638 122.546 130.255 122.814C129.872 123.083 129.681 123.464 129.681 123.956C129.681 124.384 129.811 124.701 130.07 124.906C130.33 125.111 130.674 125.214 131.103 125.214C131.768 125.214 132.312 125.029 132.736 124.66C133.16 124.291 133.372 123.737 133.372 122.999V122.309ZM140.235 118.371C140.386 118.371 140.543 118.38 140.707 118.398C140.871 118.412 141.017 118.433 141.145 118.46L141.001 119.513C140.878 119.481 140.741 119.456 140.591 119.438C140.44 119.419 140.299 119.41 140.167 119.41C139.866 119.41 139.581 119.472 139.312 119.595C139.048 119.713 138.816 119.886 138.615 120.114C138.415 120.338 138.257 120.609 138.144 120.928C138.03 121.242 137.973 121.593 137.973 121.98V126H136.831V118.508H137.774L137.897 119.889H137.945C138.1 119.611 138.287 119.358 138.506 119.13C138.725 118.897 138.978 118.713 139.265 118.576C139.556 118.439 139.88 118.371 140.235 118.371ZM145.561 126.137C144.886 126.137 144.291 125.998 143.776 125.72C143.261 125.442 142.86 125.018 142.573 124.448C142.286 123.879 142.143 123.161 142.143 122.295C142.143 121.388 142.293 120.647 142.594 120.073C142.899 119.494 143.318 119.066 143.852 118.788C144.385 118.51 144.991 118.371 145.67 118.371C146.044 118.371 146.404 118.41 146.75 118.487C147.101 118.56 147.388 118.654 147.611 118.768L147.27 119.718C147.042 119.627 146.777 119.545 146.477 119.472C146.18 119.399 145.902 119.362 145.643 119.362C145.123 119.362 144.69 119.474 144.344 119.697C144.002 119.921 143.744 120.249 143.571 120.682C143.403 121.115 143.318 121.648 143.318 122.281C143.318 122.887 143.4 123.405 143.564 123.833C143.733 124.261 143.981 124.59 144.31 124.817C144.642 125.041 145.057 125.152 145.554 125.152C145.95 125.152 146.308 125.111 146.627 125.029C146.946 124.943 147.235 124.842 147.495 124.729V125.74C147.244 125.868 146.964 125.966 146.654 126.034C146.349 126.103 145.984 126.137 145.561 126.137ZM150.407 115.363V118.542C150.407 118.724 150.403 118.909 150.394 119.096C150.384 119.278 150.368 119.447 150.346 119.602H150.421C150.576 119.337 150.772 119.116 151.009 118.938C151.25 118.756 151.524 118.619 151.829 118.528C152.134 118.433 152.458 118.385 152.8 118.385C153.401 118.385 153.903 118.48 154.304 118.672C154.709 118.863 155.012 119.16 155.213 119.561C155.418 119.962 155.521 120.481 155.521 121.119V126H154.399V121.194C154.399 120.57 154.256 120.103 153.969 119.793C153.686 119.483 153.251 119.328 152.663 119.328C152.107 119.328 151.663 119.435 151.33 119.649C151.002 119.859 150.765 120.169 150.619 120.579C150.478 120.989 150.407 121.491 150.407 122.083V126H149.272V115.363H150.407ZM157.223 122.746V121.734H160.613V122.746H157.223ZM163.505 115.363V118.022C163.505 118.328 163.496 118.624 163.478 118.911C163.464 119.198 163.452 119.422 163.443 119.581H163.505C163.71 119.244 164.006 118.959 164.394 118.727C164.781 118.494 165.275 118.378 165.877 118.378C166.816 118.378 167.563 118.704 168.119 119.355C168.68 120.003 168.96 120.966 168.96 122.247C168.96 123.09 168.832 123.801 168.577 124.38C168.322 124.959 167.962 125.396 167.497 125.692C167.032 125.989 166.483 126.137 165.85 126.137C165.257 126.137 164.77 126.027 164.387 125.809C164.008 125.585 163.717 125.314 163.512 124.995H163.423L163.19 126H162.37V115.363H163.505ZM165.692 119.328C165.15 119.328 164.719 119.435 164.4 119.649C164.081 119.859 163.851 120.178 163.71 120.606C163.573 121.03 163.505 121.568 163.505 122.22V122.281C163.505 123.225 163.662 123.947 163.977 124.448C164.291 124.945 164.863 125.193 165.692 125.193C166.39 125.193 166.911 124.938 167.258 124.428C167.609 123.917 167.784 123.188 167.784 122.24C167.784 121.274 167.611 120.547 167.265 120.06C166.923 119.572 166.399 119.328 165.692 119.328ZM173.745 118.385C174.638 118.385 175.301 118.585 175.734 118.986C176.167 119.387 176.384 120.028 176.384 120.907V126H175.557L175.338 124.893H175.283C175.074 125.166 174.855 125.396 174.627 125.583C174.399 125.765 174.135 125.904 173.834 126C173.538 126.091 173.173 126.137 172.74 126.137C172.285 126.137 171.879 126.057 171.523 125.897C171.173 125.738 170.895 125.496 170.689 125.173C170.489 124.849 170.389 124.439 170.389 123.942C170.389 123.195 170.685 122.621 171.277 122.22C171.87 121.819 172.772 121.6 173.984 121.563L175.276 121.509V121.051C175.276 120.404 175.137 119.95 174.859 119.69C174.581 119.431 174.189 119.301 173.684 119.301C173.292 119.301 172.918 119.358 172.562 119.472C172.207 119.586 171.87 119.72 171.551 119.875L171.202 119.014C171.539 118.84 171.927 118.692 172.364 118.569C172.802 118.446 173.262 118.385 173.745 118.385ZM175.263 122.309L174.121 122.356C173.187 122.393 172.528 122.546 172.146 122.814C171.763 123.083 171.571 123.464 171.571 123.956C171.571 124.384 171.701 124.701 171.961 124.906C172.221 125.111 172.565 125.214 172.993 125.214C173.659 125.214 174.203 125.029 174.627 124.66C175.051 124.291 175.263 123.737 175.263 122.999V122.309ZM183.568 123.949C183.568 124.428 183.448 124.831 183.206 125.159C182.969 125.483 182.627 125.727 182.181 125.891C181.739 126.055 181.21 126.137 180.595 126.137C180.071 126.137 179.617 126.096 179.234 126.014C178.852 125.932 178.517 125.815 178.229 125.665V124.619C178.535 124.77 178.899 124.906 179.323 125.029C179.747 125.152 180.18 125.214 180.622 125.214C181.269 125.214 181.739 125.109 182.03 124.899C182.322 124.69 182.468 124.405 182.468 124.045C182.468 123.84 182.409 123.66 182.29 123.505C182.176 123.345 181.982 123.193 181.709 123.047C181.436 122.896 181.057 122.732 180.574 122.555C180.096 122.372 179.681 122.192 179.33 122.015C178.984 121.832 178.715 121.611 178.523 121.352C178.337 121.092 178.243 120.755 178.243 120.34C178.243 119.706 178.498 119.221 179.009 118.884C179.524 118.542 180.198 118.371 181.032 118.371C181.483 118.371 181.905 118.417 182.297 118.508C182.693 118.594 183.062 118.713 183.404 118.863L183.021 119.772C182.712 119.64 182.381 119.529 182.03 119.438C181.679 119.346 181.322 119.301 180.957 119.301C180.433 119.301 180.03 119.387 179.747 119.561C179.469 119.734 179.33 119.971 179.33 120.271C179.33 120.504 179.394 120.695 179.521 120.846C179.654 120.996 179.863 121.137 180.15 121.27C180.438 121.402 180.816 121.557 181.285 121.734C181.755 121.908 182.16 122.088 182.502 122.274C182.844 122.457 183.106 122.68 183.288 122.944C183.475 123.204 183.568 123.539 183.568 123.949ZM188.278 118.371C188.916 118.371 189.463 118.512 189.919 118.795C190.375 119.077 190.723 119.474 190.965 119.984C191.206 120.49 191.327 121.083 191.327 121.762V122.466H186.152C186.166 123.345 186.385 124.015 186.809 124.476C187.232 124.936 187.829 125.166 188.6 125.166C189.074 125.166 189.493 125.123 189.857 125.036C190.222 124.95 190.6 124.822 190.992 124.653V125.651C190.614 125.82 190.238 125.943 189.864 126.021C189.495 126.098 189.058 126.137 188.552 126.137C187.832 126.137 187.203 125.991 186.665 125.699C186.132 125.403 185.717 124.97 185.421 124.4C185.125 123.831 184.977 123.133 184.977 122.309C184.977 121.502 185.111 120.805 185.38 120.217C185.653 119.624 186.036 119.169 186.528 118.85C187.025 118.531 187.608 118.371 188.278 118.371ZM188.265 119.301C187.659 119.301 187.175 119.499 186.815 119.896C186.455 120.292 186.241 120.846 186.173 121.557H190.138C190.133 121.11 190.062 120.718 189.926 120.381C189.794 120.039 189.591 119.775 189.317 119.588C189.044 119.396 188.693 119.301 188.265 119.301ZM195.921 126.137C194.973 126.137 194.221 125.813 193.665 125.166C193.114 124.519 192.838 123.557 192.838 122.281C192.838 120.992 193.12 120.019 193.686 119.362C194.251 118.701 195.003 118.371 195.941 118.371C196.338 118.371 196.684 118.424 196.98 118.528C197.277 118.633 197.532 118.774 197.746 118.952C197.96 119.125 198.14 119.324 198.286 119.547H198.368C198.35 119.406 198.332 119.212 198.313 118.966C198.295 118.72 198.286 118.519 198.286 118.364V115.363H199.421V126H198.505L198.334 124.934H198.286C198.145 125.157 197.965 125.36 197.746 125.542C197.532 125.724 197.274 125.87 196.974 125.979C196.677 126.084 196.326 126.137 195.921 126.137ZM196.099 125.193C196.901 125.193 197.468 124.965 197.801 124.51C198.133 124.054 198.3 123.377 198.3 122.479V122.274C198.3 121.322 198.14 120.59 197.821 120.08C197.507 119.57 196.933 119.314 196.099 119.314C195.401 119.314 194.88 119.583 194.533 120.121C194.187 120.654 194.014 121.383 194.014 122.309C194.014 123.229 194.185 123.94 194.526 124.441C194.873 124.943 195.397 125.193 196.099 125.193ZM207.884 125.207C208.071 125.207 208.262 125.191 208.458 125.159C208.654 125.127 208.813 125.089 208.937 125.043V125.925C208.804 125.984 208.62 126.034 208.383 126.075C208.15 126.116 207.923 126.137 207.699 126.137C207.303 126.137 206.943 126.068 206.619 125.932C206.296 125.79 206.036 125.553 205.84 125.221C205.648 124.888 205.553 124.428 205.553 123.84V119.396H204.486V118.843L205.56 118.398L206.011 116.771H206.694V118.508H208.889V119.396H206.694V123.806C206.694 124.275 206.801 124.626 207.016 124.858C207.234 125.091 207.524 125.207 207.884 125.207ZM213.339 118.371C213.977 118.371 214.524 118.512 214.979 118.795C215.435 119.077 215.784 119.474 216.025 119.984C216.267 120.49 216.388 121.083 216.388 121.762V122.466H211.213C211.227 123.345 211.445 124.015 211.869 124.476C212.293 124.936 212.89 125.166 213.66 125.166C214.134 125.166 214.553 125.123 214.918 125.036C215.283 124.95 215.661 124.822 216.053 124.653V125.651C215.674 125.82 215.299 125.943 214.925 126.021C214.556 126.098 214.118 126.137 213.612 126.137C212.892 126.137 212.263 125.991 211.726 125.699C211.192 125.403 210.778 124.97 210.481 124.4C210.185 123.831 210.037 123.133 210.037 122.309C210.037 121.502 210.172 120.805 210.44 120.217C210.714 119.624 211.097 119.169 211.589 118.85C212.086 118.531 212.669 118.371 213.339 118.371ZM213.325 119.301C212.719 119.301 212.236 119.499 211.876 119.896C211.516 120.292 211.302 120.846 211.233 121.557H215.198C215.194 121.11 215.123 120.718 214.986 120.381C214.854 120.039 214.651 119.775 214.378 119.588C214.104 119.396 213.754 119.301 213.325 119.301ZM221.316 126.137C220.642 126.137 220.047 125.998 219.532 125.72C219.017 125.442 218.616 125.018 218.329 124.448C218.042 123.879 217.898 123.161 217.898 122.295C217.898 121.388 218.049 120.647 218.35 120.073C218.655 119.494 219.074 119.066 219.607 118.788C220.141 118.51 220.747 118.371 221.426 118.371C221.799 118.371 222.16 118.41 222.506 118.487C222.857 118.56 223.144 118.654 223.367 118.768L223.025 119.718C222.798 119.627 222.533 119.545 222.232 119.472C221.936 119.399 221.658 119.362 221.398 119.362C220.879 119.362 220.446 119.474 220.1 119.697C219.758 119.921 219.5 120.249 219.327 120.682C219.159 121.115 219.074 121.648 219.074 122.281C219.074 122.887 219.156 123.405 219.32 123.833C219.489 124.261 219.737 124.59 220.065 124.817C220.398 125.041 220.813 125.152 221.31 125.152C221.706 125.152 222.064 125.111 222.383 125.029C222.702 124.943 222.991 124.842 223.251 124.729V125.74C223 125.868 222.72 125.966 222.41 126.034C222.105 126.103 221.74 126.137 221.316 126.137ZM226.163 115.363V118.542C226.163 118.724 226.159 118.909 226.149 119.096C226.14 119.278 226.124 119.447 226.102 119.602H226.177C226.332 119.337 226.528 119.116 226.765 118.938C227.006 118.756 227.28 118.619 227.585 118.528C227.89 118.433 228.214 118.385 228.556 118.385C229.157 118.385 229.659 118.48 230.06 118.672C230.465 118.863 230.768 119.16 230.969 119.561C231.174 119.962 231.276 120.481 231.276 121.119V126H230.155V121.194C230.155 120.57 230.012 120.103 229.725 119.793C229.442 119.483 229.007 119.328 228.419 119.328C227.863 119.328 227.419 119.435 227.086 119.649C226.758 119.859 226.521 120.169 226.375 120.579C226.234 120.989 226.163 121.491 226.163 122.083V126H225.028V115.363H226.163ZM237.162 118.371C238.051 118.371 238.723 118.59 239.179 119.027C239.634 119.46 239.862 120.158 239.862 121.119V126H238.741V121.194C238.741 120.57 238.598 120.103 238.311 119.793C238.028 119.483 237.593 119.328 237.005 119.328C236.175 119.328 235.592 119.563 235.255 120.032C234.918 120.502 234.749 121.183 234.749 122.076V126H233.614V118.508H234.53L234.701 119.588H234.763C234.922 119.324 235.125 119.103 235.371 118.925C235.617 118.743 235.893 118.606 236.198 118.515C236.504 118.419 236.825 118.371 237.162 118.371ZM243.335 118.508V126H242.2V118.508H243.335ZM242.781 115.705C242.968 115.705 243.128 115.767 243.26 115.89C243.396 116.008 243.465 116.195 243.465 116.45C243.465 116.701 243.396 116.888 243.26 117.011C243.128 117.134 242.968 117.195 242.781 117.195C242.585 117.195 242.421 117.134 242.289 117.011C242.161 116.888 242.098 116.701 242.098 116.45C242.098 116.195 242.161 116.008 242.289 115.89C242.421 115.767 242.585 115.705 242.781 115.705ZM250.766 129.35V126.137C250.766 125.959 250.77 125.754 250.779 125.521C250.788 125.289 250.804 125.089 250.827 124.92H250.752C250.542 125.266 250.244 125.556 249.856 125.788C249.469 126.021 248.97 126.137 248.359 126.137C247.443 126.137 246.707 125.813 246.151 125.166C245.595 124.519 245.317 123.553 245.317 122.268C245.317 121.424 245.445 120.714 245.7 120.135C245.955 119.556 246.315 119.118 246.78 118.822C247.25 118.521 247.797 118.371 248.421 118.371C249.018 118.371 249.506 118.49 249.884 118.727C250.262 118.959 250.558 119.244 250.772 119.581H250.827L250.998 118.508H251.9V129.35H250.766ZM248.571 125.193C249.1 125.193 249.524 125.095 249.843 124.899C250.162 124.699 250.394 124.398 250.54 123.997C250.69 123.596 250.77 123.097 250.779 122.5V122.261C250.779 121.295 250.615 120.563 250.287 120.066C249.959 119.565 249.387 119.314 248.571 119.314C247.869 119.314 247.348 119.583 247.006 120.121C246.664 120.654 246.493 121.379 246.493 122.295C246.493 123.211 246.664 123.924 247.006 124.435C247.348 124.94 247.869 125.193 248.571 125.193ZM260.5 118.508V126H259.57L259.406 124.947H259.345C259.19 125.207 258.989 125.426 258.743 125.604C258.497 125.781 258.219 125.913 257.909 126C257.604 126.091 257.278 126.137 256.932 126.137C256.339 126.137 255.842 126.041 255.441 125.85C255.04 125.658 254.737 125.362 254.532 124.961C254.332 124.56 254.231 124.045 254.231 123.416V118.508H255.38V123.334C255.38 123.958 255.521 124.425 255.804 124.735C256.086 125.041 256.517 125.193 257.096 125.193C257.652 125.193 258.094 125.089 258.422 124.879C258.755 124.669 258.994 124.362 259.14 123.956C259.285 123.546 259.358 123.045 259.358 122.452V118.508H260.5ZM265.784 118.371C266.422 118.371 266.969 118.512 267.425 118.795C267.881 119.077 268.229 119.474 268.471 119.984C268.712 120.49 268.833 121.083 268.833 121.762V122.466H263.658C263.672 123.345 263.891 124.015 264.314 124.476C264.738 124.936 265.335 125.166 266.105 125.166C266.579 125.166 266.999 125.123 267.363 125.036C267.728 124.95 268.106 124.822 268.498 124.653V125.651C268.12 125.82 267.744 125.943 267.37 126.021C267.001 126.098 266.563 126.137 266.058 126.137C265.338 126.137 264.709 125.991 264.171 125.699C263.638 125.403 263.223 124.97 262.927 124.4C262.631 123.831 262.482 123.133 262.482 122.309C262.482 121.502 262.617 120.805 262.886 120.217C263.159 119.624 263.542 119.169 264.034 118.85C264.531 118.531 265.114 118.371 265.784 118.371ZM265.771 119.301C265.164 119.301 264.681 119.499 264.321 119.896C263.961 120.292 263.747 120.846 263.679 121.557H267.644C267.639 121.11 267.568 120.718 267.432 120.381C267.299 120.039 267.097 119.775 266.823 119.588C266.55 119.396 266.199 119.301 265.771 119.301ZM275.607 123.949C275.607 124.428 275.487 124.831 275.245 125.159C275.008 125.483 274.666 125.727 274.22 125.891C273.778 126.055 273.249 126.137 272.634 126.137C272.11 126.137 271.656 126.096 271.273 126.014C270.891 125.932 270.556 125.815 270.269 125.665V124.619C270.574 124.77 270.938 124.906 271.362 125.029C271.786 125.152 272.219 125.214 272.661 125.214C273.308 125.214 273.778 125.109 274.069 124.899C274.361 124.69 274.507 124.405 274.507 124.045C274.507 123.84 274.448 123.66 274.329 123.505C274.215 123.345 274.021 123.193 273.748 123.047C273.475 122.896 273.096 122.732 272.613 122.555C272.135 122.372 271.72 122.192 271.369 122.015C271.023 121.832 270.754 121.611 270.562 121.352C270.376 121.092 270.282 120.755 270.282 120.34C270.282 119.706 270.537 119.221 271.048 118.884C271.563 118.542 272.237 118.371 273.071 118.371C273.522 118.371 273.944 118.417 274.336 118.508C274.732 118.594 275.102 118.713 275.443 118.863L275.061 119.772C274.751 119.64 274.42 119.529 274.069 119.438C273.718 119.346 273.361 119.301 272.996 119.301C272.472 119.301 272.069 119.387 271.786 119.561C271.508 119.734 271.369 119.971 271.369 120.271C271.369 120.504 271.433 120.695 271.561 120.846C271.693 120.996 271.902 121.137 272.189 121.27C272.477 121.402 272.855 121.557 273.324 121.734C273.794 121.908 274.199 122.088 274.541 122.274C274.883 122.457 275.145 122.68 275.327 122.944C275.514 123.204 275.607 123.539 275.607 123.949ZM43.6162 144.207C43.8031 144.207 43.9945 144.191 44.1904 144.159C44.3864 144.127 44.5459 144.089 44.6689 144.043V144.925C44.5368 144.984 44.3522 145.034 44.1152 145.075C43.8828 145.116 43.6549 145.137 43.4316 145.137C43.0352 145.137 42.6751 145.068 42.3516 144.932C42.028 144.79 41.7682 144.553 41.5723 144.221C41.3809 143.888 41.2852 143.428 41.2852 142.84V138.396H40.2188V137.843L41.292 137.398L41.7432 135.771H42.4268V137.508H44.6211V138.396H42.4268V142.806C42.4268 143.275 42.5339 143.626 42.748 143.858C42.9668 144.091 43.2562 144.207 43.6162 144.207ZM52.6465 141.24C52.6465 141.855 52.5667 142.405 52.4072 142.888C52.2477 143.371 52.0176 143.779 51.7168 144.111C51.416 144.444 51.0514 144.699 50.623 144.877C50.1992 145.05 49.7184 145.137 49.1807 145.137C48.6794 145.137 48.2191 145.05 47.7998 144.877C47.3851 144.699 47.0251 144.444 46.7197 144.111C46.4189 143.779 46.1842 143.371 46.0156 142.888C45.8516 142.405 45.7695 141.855 45.7695 141.24C45.7695 140.42 45.9085 139.723 46.1865 139.148C46.4645 138.57 46.861 138.13 47.376 137.829C47.8955 137.524 48.513 137.371 49.2285 137.371C49.9121 137.371 50.5091 137.524 51.0195 137.829C51.5345 138.134 51.9333 138.576 52.2158 139.155C52.5029 139.729 52.6465 140.424 52.6465 141.24ZM46.9453 141.24C46.9453 141.842 47.0251 142.364 47.1846 142.806C47.3441 143.248 47.5902 143.59 47.9229 143.831C48.2555 144.073 48.6839 144.193 49.208 144.193C49.7275 144.193 50.1536 144.073 50.4863 143.831C50.8236 143.59 51.0719 143.248 51.2314 142.806C51.391 142.364 51.4707 141.842 51.4707 141.24C51.4707 140.643 51.391 140.128 51.2314 139.695C51.0719 139.258 50.8258 138.921 50.4932 138.684C50.1605 138.447 49.7298 138.328 49.2012 138.328C48.4219 138.328 47.8499 138.586 47.4854 139.101C47.1253 139.616 46.9453 140.329 46.9453 141.24ZM59.3799 134.363V137.022C59.3799 137.328 59.3708 137.624 59.3525 137.911C59.3389 138.198 59.3275 138.422 59.3184 138.581H59.3799C59.585 138.244 59.8812 137.959 60.2686 137.727C60.6559 137.494 61.1504 137.378 61.752 137.378C62.6908 137.378 63.4382 137.704 63.9941 138.355C64.5547 139.003 64.835 139.966 64.835 141.247C64.835 142.09 64.7074 142.801 64.4521 143.38C64.1969 143.959 63.8369 144.396 63.3721 144.692C62.9072 144.989 62.3581 145.137 61.7246 145.137C61.1322 145.137 60.6445 145.027 60.2617 144.809C59.8835 144.585 59.5918 144.314 59.3867 143.995H59.2979L59.0654 145H58.2451V134.363H59.3799ZM61.5674 138.328C61.0251 138.328 60.5944 138.435 60.2754 138.649C59.9564 138.859 59.7262 139.178 59.585 139.606C59.4482 140.03 59.3799 140.568 59.3799 141.22V141.281C59.3799 142.225 59.5371 142.947 59.8516 143.448C60.166 143.945 60.738 144.193 61.5674 144.193C62.2646 144.193 62.7865 143.938 63.1328 143.428C63.4837 142.917 63.6592 142.188 63.6592 141.24C63.6592 140.274 63.486 139.547 63.1396 139.06C62.7979 138.572 62.2738 138.328 61.5674 138.328ZM73.2773 141.24C73.2773 141.855 73.1976 142.405 73.0381 142.888C72.8786 143.371 72.6484 143.779 72.3477 144.111C72.0469 144.444 71.6823 144.699 71.2539 144.877C70.8301 145.05 70.3493 145.137 69.8115 145.137C69.3102 145.137 68.8499 145.05 68.4307 144.877C68.016 144.699 67.6559 144.444 67.3506 144.111C67.0498 143.779 66.8151 143.371 66.6465 142.888C66.4824 142.405 66.4004 141.855 66.4004 141.24C66.4004 140.42 66.5394 139.723 66.8174 139.148C67.0954 138.57 67.4919 138.13 68.0068 137.829C68.5264 137.524 69.1439 137.371 69.8594 137.371C70.543 137.371 71.14 137.524 71.6504 137.829C72.1654 138.134 72.5641 138.576 72.8467 139.155C73.1338 139.729 73.2773 140.424 73.2773 141.24ZM67.5762 141.24C67.5762 141.842 67.6559 142.364 67.8154 142.806C67.9749 143.248 68.221 143.59 68.5537 143.831C68.8864 144.073 69.3148 144.193 69.8389 144.193C70.3584 144.193 70.7845 144.073 71.1172 143.831C71.4544 143.59 71.7028 143.248 71.8623 142.806C72.0218 142.364 72.1016 141.842 72.1016 141.24C72.1016 140.643 72.0218 140.128 71.8623 139.695C71.7028 139.258 71.4567 138.921 71.124 138.684C70.7913 138.447 70.3607 138.328 69.832 138.328C69.0527 138.328 68.4808 138.586 68.1162 139.101C67.7562 139.616 67.5762 140.329 67.5762 141.24ZM81.6992 141.24C81.6992 141.855 81.6195 142.405 81.46 142.888C81.3005 143.371 81.0703 143.779 80.7695 144.111C80.4688 144.444 80.1042 144.699 79.6758 144.877C79.252 145.05 78.7712 145.137 78.2334 145.137C77.7321 145.137 77.2718 145.05 76.8525 144.877C76.4378 144.699 76.0778 144.444 75.7725 144.111C75.4717 143.779 75.237 143.371 75.0684 142.888C74.9043 142.405 74.8223 141.855 74.8223 141.24C74.8223 140.42 74.9613 139.723 75.2393 139.148C75.5173 138.57 75.9137 138.13 76.4287 137.829C76.9482 137.524 77.5658 137.371 78.2812 137.371C78.9648 137.371 79.5618 137.524 80.0723 137.829C80.5872 138.134 80.986 138.576 81.2686 139.155C81.5557 139.729 81.6992 140.424 81.6992 141.24ZM75.998 141.24C75.998 141.842 76.0778 142.364 76.2373 142.806C76.3968 143.248 76.6429 143.59 76.9756 143.831C77.3083 144.073 77.7367 144.193 78.2607 144.193C78.7803 144.193 79.2064 144.073 79.5391 143.831C79.8763 143.59 80.1247 143.248 80.2842 142.806C80.4437 142.364 80.5234 141.842 80.5234 141.24C80.5234 140.643 80.4437 140.128 80.2842 139.695C80.1247 139.258 79.8786 138.921 79.5459 138.684C79.2132 138.447 78.7826 138.328 78.2539 138.328C77.4746 138.328 76.9027 138.586 76.5381 139.101C76.1781 139.616 75.998 140.329 75.998 141.24ZM88.5078 142.949C88.5078 143.428 88.387 143.831 88.1455 144.159C87.9085 144.483 87.5667 144.727 87.1201 144.891C86.6781 145.055 86.1494 145.137 85.5342 145.137C85.0101 145.137 84.5566 145.096 84.1738 145.014C83.791 144.932 83.4561 144.815 83.1689 144.665V143.619C83.4743 143.77 83.8389 143.906 84.2627 144.029C84.6865 144.152 85.1195 144.214 85.5615 144.214C86.2087 144.214 86.6781 144.109 86.9697 143.899C87.2614 143.69 87.4072 143.405 87.4072 143.045C87.4072 142.84 87.348 142.66 87.2295 142.505C87.1156 142.345 86.9219 142.193 86.6484 142.047C86.375 141.896 85.9967 141.732 85.5137 141.555C85.0352 141.372 84.6204 141.192 84.2695 141.015C83.9232 140.832 83.6543 140.611 83.4629 140.352C83.276 140.092 83.1826 139.755 83.1826 139.34C83.1826 138.706 83.4378 138.221 83.9482 137.884C84.4632 137.542 85.1377 137.371 85.9717 137.371C86.4229 137.371 86.8444 137.417 87.2363 137.508C87.6328 137.594 88.002 137.713 88.3438 137.863L87.9609 138.772C87.651 138.64 87.3206 138.529 86.9697 138.438C86.6188 138.346 86.2611 138.301 85.8965 138.301C85.3724 138.301 84.9691 138.387 84.6865 138.561C84.4085 138.734 84.2695 138.971 84.2695 139.271C84.2695 139.504 84.3333 139.695 84.4609 139.846C84.5931 139.996 84.8027 140.137 85.0898 140.27C85.377 140.402 85.7552 140.557 86.2246 140.734C86.694 140.908 87.0996 141.088 87.4414 141.274C87.7832 141.457 88.0452 141.68 88.2275 141.944C88.4144 142.204 88.5078 142.539 88.5078 142.949ZM92.7529 144.207C92.9398 144.207 93.1312 144.191 93.3271 144.159C93.5231 144.127 93.6826 144.089 93.8057 144.043V144.925C93.6735 144.984 93.4889 145.034 93.252 145.075C93.0195 145.116 92.7917 145.137 92.5684 145.137C92.1719 145.137 91.8118 145.068 91.4883 144.932C91.1647 144.79 90.9049 144.553 90.709 144.221C90.5176 143.888 90.4219 143.428 90.4219 142.84V138.396H89.3555V137.843L90.4287 137.398L90.8799 135.771H91.5635V137.508H93.7578V138.396H91.5635V142.806C91.5635 143.275 91.6706 143.626 91.8848 143.858C92.1035 144.091 92.3929 144.207 92.7529 144.207ZM97.7773 137.508H98.9941L100.648 141.855C100.744 142.111 100.833 142.357 100.915 142.594C100.997 142.826 101.07 143.049 101.134 143.264C101.198 143.478 101.248 143.685 101.284 143.886H101.332C101.396 143.658 101.487 143.359 101.605 142.99C101.724 142.617 101.852 142.236 101.988 141.849L103.554 137.508H104.777L101.517 146.101C101.343 146.561 101.141 146.962 100.908 147.304C100.68 147.646 100.402 147.908 100.074 148.09C99.7461 148.277 99.3496 148.37 98.8848 148.37C98.6706 148.37 98.4814 148.356 98.3174 148.329C98.1533 148.306 98.012 148.279 97.8936 148.247V147.338C97.9938 147.361 98.1146 147.381 98.2559 147.399C98.4017 147.418 98.5521 147.427 98.707 147.427C98.9896 147.427 99.2334 147.372 99.4385 147.263C99.6481 147.158 99.8281 147.003 99.9785 146.798C100.129 146.593 100.259 146.349 100.368 146.066L100.778 145.014L97.7773 137.508ZM112.434 141.24C112.434 141.855 112.354 142.405 112.194 142.888C112.035 143.371 111.805 143.779 111.504 144.111C111.203 144.444 110.839 144.699 110.41 144.877C109.986 145.05 109.506 145.137 108.968 145.137C108.466 145.137 108.006 145.05 107.587 144.877C107.172 144.699 106.812 144.444 106.507 144.111C106.206 143.779 105.971 143.371 105.803 142.888C105.639 142.405 105.557 141.855 105.557 141.24C105.557 140.42 105.696 139.723 105.974 139.148C106.252 138.57 106.648 138.13 107.163 137.829C107.683 137.524 108.3 137.371 109.016 137.371C109.699 137.371 110.296 137.524 110.807 137.829C111.322 138.134 111.72 138.576 112.003 139.155C112.29 139.729 112.434 140.424 112.434 141.24ZM106.732 141.24C106.732 141.842 106.812 142.364 106.972 142.806C107.131 143.248 107.377 143.59 107.71 143.831C108.043 144.073 108.471 144.193 108.995 144.193C109.515 144.193 109.941 144.073 110.273 143.831C110.611 143.59 110.859 143.248 111.019 142.806C111.178 142.364 111.258 141.842 111.258 141.24C111.258 140.643 111.178 140.128 111.019 139.695C110.859 139.258 110.613 138.921 110.28 138.684C109.948 138.447 109.517 138.328 108.988 138.328C108.209 138.328 107.637 138.586 107.272 139.101C106.912 139.616 106.732 140.329 106.732 141.24ZM120.582 137.508V145H119.652L119.488 143.947H119.427C119.272 144.207 119.071 144.426 118.825 144.604C118.579 144.781 118.301 144.913 117.991 145C117.686 145.091 117.36 145.137 117.014 145.137C116.421 145.137 115.924 145.041 115.523 144.85C115.122 144.658 114.819 144.362 114.614 143.961C114.414 143.56 114.313 143.045 114.313 142.416V137.508H115.462V142.334C115.462 142.958 115.603 143.425 115.886 143.735C116.168 144.041 116.599 144.193 117.178 144.193C117.734 144.193 118.176 144.089 118.504 143.879C118.837 143.669 119.076 143.362 119.222 142.956C119.368 142.546 119.44 142.045 119.44 141.452V137.508H120.582ZM126.386 137.371C126.536 137.371 126.693 137.38 126.857 137.398C127.021 137.412 127.167 137.433 127.295 137.46L127.151 138.513C127.028 138.481 126.892 138.456 126.741 138.438C126.591 138.419 126.45 138.41 126.317 138.41C126.017 138.41 125.732 138.472 125.463 138.595C125.199 138.713 124.966 138.886 124.766 139.114C124.565 139.338 124.408 139.609 124.294 139.928C124.18 140.242 124.123 140.593 124.123 140.98V145H122.981V137.508H123.925L124.048 138.889H124.096C124.251 138.611 124.438 138.358 124.656 138.13C124.875 137.897 125.128 137.713 125.415 137.576C125.707 137.439 126.03 137.371 126.386 137.371ZM138.444 144.986L137.111 140.625C137.052 140.438 136.995 140.256 136.94 140.078C136.89 139.896 136.842 139.723 136.797 139.559C136.756 139.39 136.717 139.235 136.681 139.094C136.649 138.948 136.621 138.823 136.599 138.718H136.551C136.533 138.823 136.507 138.948 136.476 139.094C136.444 139.235 136.405 139.39 136.359 139.559C136.318 139.727 136.273 139.905 136.223 140.092C136.173 140.274 136.116 140.459 136.052 140.646L134.657 144.986H133.379L131.314 137.494H132.49L133.57 141.63C133.643 141.903 133.712 142.174 133.775 142.443C133.844 142.708 133.901 142.958 133.946 143.195C133.996 143.428 134.033 143.631 134.056 143.804H134.11C134.138 143.69 134.167 143.553 134.199 143.394C134.236 143.234 134.274 143.065 134.315 142.888C134.361 142.705 134.409 142.525 134.459 142.348C134.509 142.165 134.559 141.994 134.609 141.835L135.99 137.494H137.214L138.547 141.828C138.615 142.047 138.681 142.275 138.745 142.512C138.813 142.749 138.875 142.979 138.93 143.202C138.984 143.421 139.023 143.617 139.046 143.79H139.101C139.119 143.635 139.153 143.444 139.203 143.216C139.253 142.988 139.31 142.737 139.374 142.464C139.442 142.19 139.513 141.912 139.586 141.63L140.68 137.494H141.835L139.764 144.986H138.444ZM146.087 137.371C146.725 137.371 147.272 137.512 147.728 137.795C148.183 138.077 148.532 138.474 148.773 138.984C149.015 139.49 149.136 140.083 149.136 140.762V141.466H143.961C143.975 142.345 144.193 143.015 144.617 143.476C145.041 143.936 145.638 144.166 146.408 144.166C146.882 144.166 147.301 144.123 147.666 144.036C148.031 143.95 148.409 143.822 148.801 143.653V144.651C148.423 144.82 148.047 144.943 147.673 145.021C147.304 145.098 146.866 145.137 146.36 145.137C145.64 145.137 145.011 144.991 144.474 144.699C143.94 144.403 143.526 143.97 143.229 143.4C142.933 142.831 142.785 142.133 142.785 141.309C142.785 140.502 142.92 139.805 143.188 139.217C143.462 138.624 143.845 138.169 144.337 137.85C144.834 137.531 145.417 137.371 146.087 137.371ZM146.073 138.301C145.467 138.301 144.984 138.499 144.624 138.896C144.264 139.292 144.05 139.846 143.981 140.557H147.946C147.942 140.11 147.871 139.718 147.734 139.381C147.602 139.039 147.399 138.775 147.126 138.588C146.853 138.396 146.502 138.301 146.073 138.301ZM152.205 145H151.063V134.363H152.205V145ZM155.746 145H154.604V134.363H155.746V145ZM157.51 141.746V140.734H160.9V141.746H157.51ZM163.792 134.363V137.022C163.792 137.328 163.783 137.624 163.765 137.911C163.751 138.198 163.74 138.422 163.73 138.581H163.792C163.997 138.244 164.293 137.959 164.681 137.727C165.068 137.494 165.562 137.378 166.164 137.378C167.103 137.378 167.85 137.704 168.406 138.355C168.967 139.003 169.247 139.966 169.247 141.247C169.247 142.09 169.119 142.801 168.864 143.38C168.609 143.959 168.249 144.396 167.784 144.692C167.319 144.989 166.77 145.137 166.137 145.137C165.544 145.137 165.057 145.027 164.674 144.809C164.296 144.585 164.004 144.314 163.799 143.995H163.71L163.478 145H162.657V134.363H163.792ZM165.979 138.328C165.437 138.328 165.007 138.435 164.688 138.649C164.368 138.859 164.138 139.178 163.997 139.606C163.86 140.03 163.792 140.568 163.792 141.22V141.281C163.792 142.225 163.949 142.947 164.264 143.448C164.578 143.945 165.15 144.193 165.979 144.193C166.677 144.193 167.199 143.938 167.545 143.428C167.896 142.917 168.071 142.188 168.071 141.24C168.071 140.274 167.898 139.547 167.552 139.06C167.21 138.572 166.686 138.328 165.979 138.328ZM174.114 137.371C174.752 137.371 175.299 137.512 175.755 137.795C176.211 138.077 176.559 138.474 176.801 138.984C177.042 139.49 177.163 140.083 177.163 140.762V141.466H171.988C172.002 142.345 172.221 143.015 172.645 143.476C173.068 143.936 173.665 144.166 174.436 144.166C174.91 144.166 175.329 144.123 175.693 144.036C176.058 143.95 176.436 143.822 176.828 143.653V144.651C176.45 144.82 176.074 144.943 175.7 145.021C175.331 145.098 174.894 145.137 174.388 145.137C173.668 145.137 173.039 144.991 172.501 144.699C171.968 144.403 171.553 143.97 171.257 143.4C170.961 142.831 170.812 142.133 170.812 141.309C170.812 140.502 170.947 139.805 171.216 139.217C171.489 138.624 171.872 138.169 172.364 137.85C172.861 137.531 173.444 137.371 174.114 137.371ZM174.101 138.301C173.494 138.301 173.011 138.499 172.651 138.896C172.291 139.292 172.077 139.846 172.009 140.557H175.974C175.969 140.11 175.898 139.718 175.762 139.381C175.63 139.039 175.427 138.775 175.153 138.588C174.88 138.396 174.529 138.301 174.101 138.301ZM180.226 137.508V145H179.091V137.508H180.226ZM179.672 134.705C179.859 134.705 180.018 134.767 180.15 134.89C180.287 135.008 180.355 135.195 180.355 135.45C180.355 135.701 180.287 135.888 180.15 136.011C180.018 136.134 179.859 136.195 179.672 136.195C179.476 136.195 179.312 136.134 179.18 136.011C179.052 135.888 178.988 135.701 178.988 135.45C178.988 135.195 179.052 135.008 179.18 134.89C179.312 134.767 179.476 134.705 179.672 134.705ZM186.18 137.371C187.068 137.371 187.741 137.59 188.196 138.027C188.652 138.46 188.88 139.158 188.88 140.119V145H187.759V140.194C187.759 139.57 187.615 139.103 187.328 138.793C187.046 138.483 186.61 138.328 186.022 138.328C185.193 138.328 184.61 138.563 184.272 139.032C183.935 139.502 183.767 140.183 183.767 141.076V145H182.632V137.508H183.548L183.719 138.588H183.78C183.94 138.324 184.143 138.103 184.389 137.925C184.635 137.743 184.91 137.606 185.216 137.515C185.521 137.419 185.842 137.371 186.18 137.371ZM193.31 148.363C192.325 148.363 191.566 148.179 191.033 147.81C190.5 147.445 190.233 146.932 190.233 146.271C190.233 145.802 190.382 145.401 190.678 145.068C190.979 144.736 191.393 144.515 191.922 144.405C191.726 144.314 191.557 144.177 191.416 143.995C191.279 143.813 191.211 143.603 191.211 143.366C191.211 143.093 191.286 142.854 191.437 142.648C191.591 142.439 191.826 142.238 192.141 142.047C191.749 141.887 191.43 141.618 191.184 141.24C190.942 140.857 190.821 140.413 190.821 139.907C190.821 139.369 190.933 138.911 191.156 138.533C191.38 138.15 191.703 137.859 192.127 137.658C192.551 137.458 193.063 137.357 193.665 137.357C193.797 137.357 193.929 137.364 194.062 137.378C194.198 137.387 194.328 137.403 194.451 137.426C194.574 137.444 194.681 137.467 194.772 137.494H197.343V138.226L195.962 138.396C196.099 138.574 196.213 138.788 196.304 139.039C196.395 139.29 196.44 139.568 196.44 139.873C196.44 140.62 196.188 141.215 195.682 141.657C195.176 142.095 194.481 142.313 193.597 142.313C193.387 142.313 193.173 142.295 192.954 142.259C192.731 142.382 192.56 142.519 192.441 142.669C192.327 142.819 192.271 142.993 192.271 143.188C192.271 143.334 192.314 143.451 192.4 143.537C192.492 143.624 192.621 143.688 192.79 143.729C192.959 143.765 193.161 143.783 193.398 143.783H194.718C195.534 143.783 196.158 143.954 196.591 144.296C197.028 144.638 197.247 145.137 197.247 145.793C197.247 146.622 196.91 147.258 196.235 147.7C195.561 148.142 194.586 148.363 193.31 148.363ZM193.344 147.475C193.964 147.475 194.476 147.411 194.882 147.283C195.292 147.16 195.597 146.98 195.798 146.743C196.003 146.511 196.105 146.233 196.105 145.909C196.105 145.608 196.037 145.381 195.9 145.226C195.764 145.075 195.563 144.975 195.299 144.925C195.035 144.87 194.711 144.843 194.328 144.843H193.029C192.692 144.843 192.398 144.895 192.147 145C191.897 145.105 191.703 145.26 191.566 145.465C191.434 145.67 191.368 145.925 191.368 146.23C191.368 146.636 191.539 146.944 191.881 147.153C192.223 147.368 192.71 147.475 193.344 147.475ZM193.638 141.486C194.18 141.486 194.588 141.35 194.861 141.076C195.135 140.803 195.271 140.404 195.271 139.88C195.271 139.319 195.132 138.9 194.854 138.622C194.576 138.34 194.166 138.198 193.624 138.198C193.104 138.198 192.703 138.344 192.421 138.636C192.143 138.923 192.004 139.344 192.004 139.9C192.004 140.411 192.145 140.803 192.428 141.076C192.71 141.35 193.114 141.486 193.638 141.486ZM198.648 144.289C198.648 143.97 198.726 143.744 198.881 143.612C199.036 143.476 199.225 143.407 199.448 143.407C199.681 143.407 199.877 143.476 200.036 143.612C200.196 143.744 200.275 143.97 200.275 144.289C200.275 144.604 200.196 144.834 200.036 144.979C199.877 145.121 199.681 145.191 199.448 145.191C199.225 145.191 199.036 145.121 198.881 144.979C198.726 144.834 198.648 144.604 198.648 144.289Z" fill="white"/>
</svg>
