<svg width="327" height="208" viewBox="0 0 327 208" fill="none" xmlns="http://www.w3.org/2000/svg">
<g filter="url(#filter0_d_336_5)">
<rect x="6" y="6" width="319" height="60" rx="10" fill="#173F5F"/>
</g>
<g filter="url(#filter1_d_336_5)">
<rect x="6" y="76" width="319" height="60" rx="10" fill="#173F5F"/>
</g>
<g filter="url(#filter2_d_336_5)">
<rect x="6" y="146" width="319" height="60" rx="10" fill="#173F5F"/>
</g>
<path d="M26 171L35.4826 180.3C35.877 180.686 36.5102 180.68 36.8969 180.286L46 171" stroke="black" stroke-opacity="0.4" stroke-width="3" stroke-linecap="round"/>
<path d="M70.5469 30.5781C72.0208 30.5781 73.0964 30.8672 73.7734 31.4453C74.4557 32.0182 74.7969 32.8411 74.7969 33.9141C74.7969 34.3984 74.7161 34.8594 74.5547 35.2969C74.3984 35.7292 74.1432 36.112 73.7891 36.4453C73.4349 36.7734 72.9688 37.0339 72.3906 37.2266C71.8177 37.4141 71.1146 37.5078 70.2812 37.5078H68.8906V42H67.5625V30.5781H70.5469ZM70.4219 31.7109H68.8906V36.3672H70.1328C70.862 36.3672 71.4688 36.2891 71.9531 36.1328C72.4427 35.9766 72.8099 35.724 73.0547 35.375C73.2995 35.0208 73.4219 34.5521 73.4219 33.9688C73.4219 33.2083 73.1797 32.6432 72.6953 32.2734C72.2109 31.8984 71.4531 31.7109 70.4219 31.7109ZM80.8828 33.2812C81.0547 33.2812 81.2344 33.2917 81.4219 33.3125C81.6094 33.3281 81.776 33.3516 81.9219 33.3828L81.7578 34.5859C81.6172 34.5495 81.4609 34.5208 81.2891 34.5C81.1172 34.4792 80.9557 34.4688 80.8047 34.4688C80.4609 34.4688 80.1354 34.5391 79.8281 34.6797C79.526 34.8151 79.2604 35.013 79.0312 35.2734C78.8021 35.5286 78.6224 35.8385 78.4922 36.2031C78.362 36.5625 78.2969 36.9635 78.2969 37.4062V42H76.9922V33.4375H78.0703L78.2109 35.0156H78.2656C78.4427 34.6979 78.6562 34.4089 78.9062 34.1484C79.1562 33.8828 79.4453 33.6719 79.7734 33.5156C80.1068 33.3594 80.4766 33.2812 80.8828 33.2812ZM90.9219 37.7031C90.9219 38.4062 90.8307 39.0339 90.6484 39.5859C90.4661 40.138 90.2031 40.6042 89.8594 40.9844C89.5156 41.3646 89.099 41.6562 88.6094 41.8594C88.125 42.0573 87.5755 42.1562 86.9609 42.1562C86.388 42.1562 85.862 42.0573 85.3828 41.8594C84.9089 41.6562 84.4974 41.3646 84.1484 40.9844C83.8047 40.6042 83.5365 40.138 83.3438 39.5859C83.1562 39.0339 83.0625 38.4062 83.0625 37.7031C83.0625 36.7656 83.2214 35.9688 83.5391 35.3125C83.8568 34.651 84.3099 34.1484 84.8984 33.8047C85.4922 33.4557 86.1979 33.2812 87.0156 33.2812C87.7969 33.2812 88.4792 33.4557 89.0625 33.8047C89.651 34.1536 90.1068 34.6589 90.4297 35.3203C90.7578 35.9766 90.9219 36.7708 90.9219 37.7031ZM84.4062 37.7031C84.4062 38.3906 84.4974 38.987 84.6797 39.4922C84.862 39.9974 85.1432 40.388 85.5234 40.6641C85.9036 40.9401 86.3932 41.0781 86.9922 41.0781C87.5859 41.0781 88.0729 40.9401 88.4531 40.6641C88.8385 40.388 89.1224 39.9974 89.3047 39.4922C89.487 38.987 89.5781 38.3906 89.5781 37.7031C89.5781 37.0208 89.487 36.4323 89.3047 35.9375C89.1224 35.4375 88.8411 35.0521 88.4609 34.7812C88.0807 34.5104 87.5885 34.375 86.9844 34.375C86.0938 34.375 85.4401 34.6693 85.0234 35.2578C84.612 35.8464 84.4062 36.6615 84.4062 37.7031ZM95.5547 45.8438C94.4297 45.8438 93.5625 45.6328 92.9531 45.2109C92.3438 44.7943 92.0391 44.2083 92.0391 43.4531C92.0391 42.9167 92.2083 42.4583 92.5469 42.0781C92.8906 41.6979 93.3646 41.4453 93.9688 41.3203C93.7448 41.2161 93.5521 41.0599 93.3906 40.8516C93.2344 40.6432 93.1562 40.4036 93.1562 40.1328C93.1562 39.8203 93.2422 39.5469 93.4141 39.3125C93.5911 39.0729 93.8594 38.8438 94.2188 38.625C93.7708 38.4427 93.4062 38.1354 93.125 37.7031C92.849 37.2656 92.7109 36.7578 92.7109 36.1797C92.7109 35.5651 92.8385 35.0417 93.0938 34.6094C93.349 34.1719 93.7188 33.8385 94.2031 33.6094C94.6875 33.3802 95.2734 33.2656 95.9609 33.2656C96.112 33.2656 96.263 33.2734 96.4141 33.2891C96.5703 33.2995 96.7188 33.3177 96.8594 33.3438C97 33.3646 97.1224 33.3906 97.2266 33.4219H100.164V34.2578L98.5859 34.4531C98.7422 34.6562 98.8724 34.901 98.9766 35.1875C99.0807 35.474 99.1328 35.7917 99.1328 36.1406C99.1328 36.9948 98.8438 37.6745 98.2656 38.1797C97.6875 38.6797 96.8932 38.9297 95.8828 38.9297C95.6432 38.9297 95.3984 38.9089 95.1484 38.8672C94.8932 39.0078 94.6979 39.1641 94.5625 39.3359C94.4323 39.5078 94.3672 39.7057 94.3672 39.9297C94.3672 40.0964 94.4167 40.2292 94.5156 40.3281C94.6198 40.4271 94.7682 40.5 94.9609 40.5469C95.1536 40.5885 95.3854 40.6094 95.6562 40.6094H97.1641C98.0964 40.6094 98.8099 40.8047 99.3047 41.1953C99.8047 41.5859 100.055 42.1562 100.055 42.9062C100.055 43.8542 99.6693 44.5807 98.8984 45.0859C98.1276 45.5911 97.013 45.8438 95.5547 45.8438ZM95.5938 44.8281C96.3021 44.8281 96.888 44.7552 97.3516 44.6094C97.8203 44.4688 98.1693 44.263 98.3984 43.9922C98.6328 43.7266 98.75 43.4089 98.75 43.0391C98.75 42.6953 98.6719 42.4349 98.5156 42.2578C98.3594 42.0859 98.1302 41.9714 97.8281 41.9141C97.526 41.8516 97.1562 41.8203 96.7188 41.8203H95.2344C94.849 41.8203 94.513 41.8802 94.2266 42C93.9401 42.1198 93.7188 42.2969 93.5625 42.5312C93.4115 42.7656 93.3359 43.0573 93.3359 43.4062C93.3359 43.8698 93.5312 44.2214 93.9219 44.4609C94.3125 44.7057 94.8698 44.8281 95.5938 44.8281ZM95.9297 37.9844C96.5495 37.9844 97.0156 37.8281 97.3281 37.5156C97.6406 37.2031 97.7969 36.7474 97.7969 36.1484C97.7969 35.5078 97.638 35.0286 97.3203 34.7109C97.0026 34.388 96.5339 34.2266 95.9141 34.2266C95.3203 34.2266 94.862 34.3932 94.5391 34.7266C94.2214 35.0547 94.0625 35.5365 94.0625 36.1719C94.0625 36.7552 94.224 37.2031 94.5469 37.5156C94.8698 37.8281 95.3307 37.9844 95.9297 37.9844ZM105.742 33.2812C105.914 33.2812 106.094 33.2917 106.281 33.3125C106.469 33.3281 106.635 33.3516 106.781 33.3828L106.617 34.5859C106.477 34.5495 106.32 34.5208 106.148 34.5C105.977 34.4792 105.815 34.4688 105.664 34.4688C105.32 34.4688 104.995 34.5391 104.688 34.6797C104.385 34.8151 104.12 35.013 103.891 35.2734C103.661 35.5286 103.482 35.8385 103.352 36.2031C103.221 36.5625 103.156 36.9635 103.156 37.4062V42H101.852V33.4375H102.93L103.07 35.0156H103.125C103.302 34.6979 103.516 34.4089 103.766 34.1484C104.016 33.8828 104.305 33.6719 104.633 33.5156C104.966 33.3594 105.336 33.2812 105.742 33.2812ZM111.602 33.2969C112.622 33.2969 113.38 33.526 113.875 33.9844C114.37 34.4427 114.617 35.1745 114.617 36.1797V42H113.672L113.422 40.7344H113.359C113.12 41.0469 112.87 41.3099 112.609 41.5234C112.349 41.7318 112.047 41.8906 111.703 42C111.365 42.1042 110.948 42.1562 110.453 42.1562C109.932 42.1562 109.469 42.0651 109.062 41.8828C108.661 41.7005 108.344 41.4245 108.109 41.0547C107.88 40.6849 107.766 40.2161 107.766 39.6484C107.766 38.7943 108.104 38.138 108.781 37.6797C109.458 37.2214 110.49 36.9714 111.875 36.9297L113.352 36.8672V36.3438C113.352 35.6042 113.193 35.0859 112.875 34.7891C112.557 34.4922 112.109 34.3438 111.531 34.3438C111.083 34.3438 110.656 34.4089 110.25 34.5391C109.844 34.6693 109.458 34.8229 109.094 35L108.695 34.0156C109.081 33.8177 109.523 33.6484 110.023 33.5078C110.523 33.3672 111.049 33.2969 111.602 33.2969ZM113.336 37.7812L112.031 37.8359C110.964 37.8776 110.211 38.0521 109.773 38.3594C109.336 38.6667 109.117 39.1016 109.117 39.6641C109.117 40.1536 109.266 40.5156 109.562 40.75C109.859 40.9844 110.253 41.1016 110.742 41.1016C111.503 41.1016 112.125 40.8906 112.609 40.4688C113.094 40.0469 113.336 39.4141 113.336 38.5703V37.7812ZM126.586 33.2812C127.529 33.2812 128.24 33.5286 128.719 34.0234C129.198 34.513 129.438 35.3021 129.438 36.3906V42H128.156V36.4531C128.156 35.7604 128.005 35.2422 127.703 34.8984C127.406 34.5495 126.964 34.375 126.375 34.375C125.547 34.375 124.945 34.6146 124.57 35.0938C124.195 35.5729 124.008 36.2786 124.008 37.2109V42H122.719V36.4531C122.719 35.9896 122.651 35.6042 122.516 35.2969C122.385 34.9896 122.188 34.7604 121.922 34.6094C121.661 34.4531 121.331 34.375 120.93 34.375C120.362 34.375 119.906 34.4922 119.562 34.7266C119.219 34.9609 118.969 35.3099 118.812 35.7734C118.661 36.2318 118.586 36.7969 118.586 37.4688V42H117.289V33.4375H118.336L118.531 34.6484H118.602C118.773 34.3516 118.99 34.1016 119.25 33.8984C119.51 33.6953 119.802 33.5417 120.125 33.4375C120.448 33.3333 120.792 33.2812 121.156 33.2812C121.807 33.2812 122.352 33.4036 122.789 33.6484C123.232 33.888 123.552 34.2552 123.75 34.75H123.82C124.102 34.2552 124.487 33.888 124.977 33.6484C125.466 33.4036 126.003 33.2812 126.586 33.2812ZM141.398 33.2812C142.341 33.2812 143.052 33.5286 143.531 34.0234C144.01 34.513 144.25 35.3021 144.25 36.3906V42H142.969V36.4531C142.969 35.7604 142.818 35.2422 142.516 34.8984C142.219 34.5495 141.776 34.375 141.188 34.375C140.359 34.375 139.758 34.6146 139.383 35.0938C139.008 35.5729 138.82 36.2786 138.82 37.2109V42H137.531V36.4531C137.531 35.9896 137.464 35.6042 137.328 35.2969C137.198 34.9896 137 34.7604 136.734 34.6094C136.474 34.4531 136.143 34.375 135.742 34.375C135.174 34.375 134.719 34.4922 134.375 34.7266C134.031 34.9609 133.781 35.3099 133.625 35.7734C133.474 36.2318 133.398 36.7969 133.398 37.4688V42H132.102V33.4375H133.148L133.344 34.6484H133.414C133.586 34.3516 133.802 34.1016 134.062 33.8984C134.323 33.6953 134.615 33.5417 134.938 33.4375C135.26 33.3333 135.604 33.2812 135.969 33.2812C136.62 33.2812 137.164 33.4036 137.602 33.6484C138.044 33.888 138.365 34.2552 138.562 34.75H138.633C138.914 34.2552 139.299 33.888 139.789 33.6484C140.279 33.4036 140.815 33.2812 141.398 33.2812ZM148.211 33.4375V42H146.914V33.4375H148.211ZM147.578 30.2344C147.792 30.2344 147.974 30.3047 148.125 30.4453C148.281 30.5807 148.359 30.7943 148.359 31.0859C148.359 31.3724 148.281 31.5859 148.125 31.7266C147.974 31.8672 147.792 31.9375 147.578 31.9375C147.354 31.9375 147.167 31.8672 147.016 31.7266C146.87 31.5859 146.797 31.3724 146.797 31.0859C146.797 30.7943 146.87 30.5807 147.016 30.4453C147.167 30.3047 147.354 30.2344 147.578 30.2344ZM155.016 33.2812C156.031 33.2812 156.799 33.5312 157.32 34.0312C157.841 34.526 158.102 35.3229 158.102 36.4219V42H156.82V36.5078C156.82 35.7943 156.656 35.2604 156.328 34.9062C156.005 34.5521 155.508 34.375 154.836 34.375C153.888 34.375 153.221 34.6432 152.836 35.1797C152.451 35.7161 152.258 36.4948 152.258 37.5156V42H150.961V33.4375H152.008L152.203 34.6719H152.273C152.456 34.3698 152.688 34.1172 152.969 33.9141C153.25 33.7057 153.565 33.5495 153.914 33.4453C154.263 33.3359 154.63 33.2812 155.016 33.2812ZM163.164 45.8438C162.039 45.8438 161.172 45.6328 160.562 45.2109C159.953 44.7943 159.648 44.2083 159.648 43.4531C159.648 42.9167 159.818 42.4583 160.156 42.0781C160.5 41.6979 160.974 41.4453 161.578 41.3203C161.354 41.2161 161.161 41.0599 161 40.8516C160.844 40.6432 160.766 40.4036 160.766 40.1328C160.766 39.8203 160.852 39.5469 161.023 39.3125C161.201 39.0729 161.469 38.8438 161.828 38.625C161.38 38.4427 161.016 38.1354 160.734 37.7031C160.458 37.2656 160.32 36.7578 160.32 36.1797C160.32 35.5651 160.448 35.0417 160.703 34.6094C160.958 34.1719 161.328 33.8385 161.812 33.6094C162.297 33.3802 162.883 33.2656 163.57 33.2656C163.721 33.2656 163.872 33.2734 164.023 33.2891C164.18 33.2995 164.328 33.3177 164.469 33.3438C164.609 33.3646 164.732 33.3906 164.836 33.4219H167.773V34.2578L166.195 34.4531C166.352 34.6562 166.482 34.901 166.586 35.1875C166.69 35.474 166.742 35.7917 166.742 36.1406C166.742 36.9948 166.453 37.6745 165.875 38.1797C165.297 38.6797 164.503 38.9297 163.492 38.9297C163.253 38.9297 163.008 38.9089 162.758 38.8672C162.503 39.0078 162.307 39.1641 162.172 39.3359C162.042 39.5078 161.977 39.7057 161.977 39.9297C161.977 40.0964 162.026 40.2292 162.125 40.3281C162.229 40.4271 162.378 40.5 162.57 40.5469C162.763 40.5885 162.995 40.6094 163.266 40.6094H164.773C165.706 40.6094 166.419 40.8047 166.914 41.1953C167.414 41.5859 167.664 42.1562 167.664 42.9062C167.664 43.8542 167.279 44.5807 166.508 45.0859C165.737 45.5911 164.622 45.8438 163.164 45.8438ZM163.203 44.8281C163.911 44.8281 164.497 44.7552 164.961 44.6094C165.43 44.4688 165.779 44.263 166.008 43.9922C166.242 43.7266 166.359 43.4089 166.359 43.0391C166.359 42.6953 166.281 42.4349 166.125 42.2578C165.969 42.0859 165.74 41.9714 165.438 41.9141C165.135 41.8516 164.766 41.8203 164.328 41.8203H162.844C162.458 41.8203 162.122 41.8802 161.836 42C161.549 42.1198 161.328 42.2969 161.172 42.5312C161.021 42.7656 160.945 43.0573 160.945 43.4062C160.945 43.8698 161.141 44.2214 161.531 44.4609C161.922 44.7057 162.479 44.8281 163.203 44.8281ZM163.539 37.9844C164.159 37.9844 164.625 37.8281 164.938 37.5156C165.25 37.2031 165.406 36.7474 165.406 36.1484C165.406 35.5078 165.247 35.0286 164.93 34.7109C164.612 34.388 164.143 34.2266 163.523 34.2266C162.93 34.2266 162.471 34.3932 162.148 34.7266C161.831 35.0547 161.672 35.5365 161.672 36.1719C161.672 36.7552 161.833 37.2031 162.156 37.5156C162.479 37.8281 162.94 37.9844 163.539 37.9844ZM175.141 42H173.812V30.5781H180.172V31.75H175.141V35.9375H179.867V37.1016H175.141V42ZM188.953 33.4375V42H187.891L187.703 40.7969H187.633C187.456 41.0938 187.227 41.3438 186.945 41.5469C186.664 41.75 186.346 41.901 185.992 42C185.643 42.1042 185.271 42.1562 184.875 42.1562C184.198 42.1562 183.63 42.0469 183.172 41.8281C182.714 41.6094 182.367 41.2708 182.133 40.8125C181.904 40.3542 181.789 39.7656 181.789 39.0469V33.4375H183.102V38.9531C183.102 39.6667 183.263 40.2005 183.586 40.5547C183.909 40.9036 184.401 41.0781 185.062 41.0781C185.698 41.0781 186.203 40.9583 186.578 40.7188C186.958 40.4792 187.232 40.1276 187.398 39.6641C187.565 39.1953 187.648 38.6224 187.648 37.9453V33.4375H188.953ZM195.75 33.2812C196.766 33.2812 197.534 33.5312 198.055 34.0312C198.576 34.526 198.836 35.3229 198.836 36.4219V42H197.555V36.5078C197.555 35.7943 197.391 35.2604 197.062 34.9062C196.74 34.5521 196.242 34.375 195.57 34.375C194.622 34.375 193.956 34.6432 193.57 35.1797C193.185 35.7161 192.992 36.4948 192.992 37.5156V42H191.695V33.4375H192.742L192.938 34.6719H193.008C193.19 34.3698 193.422 34.1172 193.703 33.9141C193.984 33.7057 194.299 33.5495 194.648 33.4453C194.997 33.3359 195.365 33.2812 195.75 33.2812ZM204.555 42.1562C203.471 42.1562 202.612 41.7865 201.977 41.0469C201.346 40.3073 201.031 39.2083 201.031 37.75C201.031 36.276 201.354 35.1641 202 34.4141C202.646 33.6589 203.505 33.2812 204.578 33.2812C205.031 33.2812 205.427 33.3411 205.766 33.4609C206.104 33.5807 206.396 33.7422 206.641 33.9453C206.885 34.1432 207.091 34.3698 207.258 34.625H207.352C207.331 34.4635 207.31 34.2422 207.289 33.9609C207.268 33.6797 207.258 33.4505 207.258 33.2734V29.8438H208.555V42H207.508L207.312 40.7812H207.258C207.096 41.0365 206.891 41.2682 206.641 41.4766C206.396 41.6849 206.102 41.8516 205.758 41.9766C205.419 42.0964 205.018 42.1562 204.555 42.1562ZM204.758 41.0781C205.674 41.0781 206.323 40.8177 206.703 40.2969C207.083 39.776 207.273 39.0026 207.273 37.9766V37.7422C207.273 36.6536 207.091 35.8177 206.727 35.2344C206.367 34.651 205.711 34.3594 204.758 34.3594C203.961 34.3594 203.365 34.6667 202.969 35.2812C202.573 35.8906 202.375 36.724 202.375 37.7812C202.375 38.8333 202.57 39.6458 202.961 40.2188C203.357 40.7917 203.956 41.0781 204.758 41.0781ZM214.508 33.2969C215.529 33.2969 216.286 33.526 216.781 33.9844C217.276 34.4427 217.523 35.1745 217.523 36.1797V42H216.578L216.328 40.7344H216.266C216.026 41.0469 215.776 41.3099 215.516 41.5234C215.255 41.7318 214.953 41.8906 214.609 42C214.271 42.1042 213.854 42.1562 213.359 42.1562C212.839 42.1562 212.375 42.0651 211.969 41.8828C211.568 41.7005 211.25 41.4245 211.016 41.0547C210.786 40.6849 210.672 40.2161 210.672 39.6484C210.672 38.7943 211.01 38.138 211.688 37.6797C212.365 37.2214 213.396 36.9714 214.781 36.9297L216.258 36.8672V36.3438C216.258 35.6042 216.099 35.0859 215.781 34.7891C215.464 34.4922 215.016 34.3438 214.438 34.3438C213.99 34.3438 213.562 34.4089 213.156 34.5391C212.75 34.6693 212.365 34.8229 212 35L211.602 34.0156C211.987 33.8177 212.43 33.6484 212.93 33.5078C213.43 33.3672 213.956 33.2969 214.508 33.2969ZM216.242 37.7812L214.938 37.8359C213.87 37.8776 213.117 38.0521 212.68 38.3594C212.242 38.6667 212.023 39.1016 212.023 39.6641C212.023 40.1536 212.172 40.5156 212.469 40.75C212.766 40.9844 213.159 41.1016 213.648 41.1016C214.409 41.1016 215.031 40.8906 215.516 40.4688C216 40.0469 216.242 39.4141 216.242 38.5703V37.7812ZM229.492 33.2812C230.435 33.2812 231.146 33.5286 231.625 34.0234C232.104 34.513 232.344 35.3021 232.344 36.3906V42H231.062V36.4531C231.062 35.7604 230.911 35.2422 230.609 34.8984C230.312 34.5495 229.87 34.375 229.281 34.375C228.453 34.375 227.852 34.6146 227.477 35.0938C227.102 35.5729 226.914 36.2786 226.914 37.2109V42H225.625V36.4531C225.625 35.9896 225.557 35.6042 225.422 35.2969C225.292 34.9896 225.094 34.7604 224.828 34.6094C224.568 34.4531 224.237 34.375 223.836 34.375C223.268 34.375 222.812 34.4922 222.469 34.7266C222.125 34.9609 221.875 35.3099 221.719 35.7734C221.568 36.2318 221.492 36.7969 221.492 37.4688V42H220.195V33.4375H221.242L221.438 34.6484H221.508C221.68 34.3516 221.896 34.1016 222.156 33.8984C222.417 33.6953 222.708 33.5417 223.031 33.4375C223.354 33.3333 223.698 33.2812 224.062 33.2812C224.714 33.2812 225.258 33.4036 225.695 33.6484C226.138 33.888 226.458 34.2552 226.656 34.75H226.727C227.008 34.2552 227.393 33.888 227.883 33.6484C228.372 33.4036 228.909 33.2812 229.492 33.2812ZM238.305 33.2812C239.034 33.2812 239.659 33.4427 240.18 33.7656C240.701 34.0885 241.099 34.5417 241.375 35.125C241.651 35.7031 241.789 36.3802 241.789 37.1562V37.9609H235.875C235.891 38.9661 236.141 39.7318 236.625 40.2578C237.109 40.7839 237.792 41.0469 238.672 41.0469C239.214 41.0469 239.693 40.9974 240.109 40.8984C240.526 40.7995 240.958 40.6536 241.406 40.4609V41.6016C240.974 41.7943 240.544 41.9349 240.117 42.0234C239.695 42.112 239.195 42.1562 238.617 42.1562C237.794 42.1562 237.076 41.9896 236.461 41.6562C235.852 41.3177 235.378 40.8229 235.039 40.1719C234.701 39.5208 234.531 38.724 234.531 37.7812C234.531 36.8594 234.685 36.0625 234.992 35.3906C235.305 34.7135 235.742 34.1927 236.305 33.8281C236.872 33.4635 237.539 33.2812 238.305 33.2812ZM238.289 34.3438C237.596 34.3438 237.044 34.5703 236.633 35.0234C236.221 35.4766 235.977 36.1094 235.898 36.9219H240.43C240.424 36.4115 240.344 35.9635 240.188 35.5781C240.036 35.1875 239.805 34.8854 239.492 34.6719C239.18 34.4531 238.779 34.3438 238.289 34.3438ZM248.047 33.2812C249.062 33.2812 249.831 33.5312 250.352 34.0312C250.872 34.526 251.133 35.3229 251.133 36.4219V42H249.852V36.5078C249.852 35.7943 249.688 35.2604 249.359 34.9062C249.036 34.5521 248.539 34.375 247.867 34.375C246.919 34.375 246.253 34.6432 245.867 35.1797C245.482 35.7161 245.289 36.4948 245.289 37.5156V42H243.992V33.4375H245.039L245.234 34.6719H245.305C245.487 34.3698 245.719 34.1172 246 33.9141C246.281 33.7057 246.596 33.5495 246.945 33.4453C247.294 33.3359 247.661 33.2812 248.047 33.2812ZM256.57 41.0938C256.784 41.0938 257.003 41.0755 257.227 41.0391C257.451 41.0026 257.633 40.9583 257.773 40.9062V41.9141C257.622 41.9818 257.411 42.0391 257.141 42.0859C256.875 42.1328 256.615 42.1562 256.359 42.1562C255.906 42.1562 255.495 42.0781 255.125 41.9219C254.755 41.7604 254.458 41.4896 254.234 41.1094C254.016 40.7292 253.906 40.2031 253.906 39.5312V34.4531H252.688V33.8203L253.914 33.3125L254.43 31.4531H255.211V33.4375H257.719V34.4531H255.211V39.4922C255.211 40.0286 255.333 40.4297 255.578 40.6953C255.828 40.9609 256.159 41.0938 256.57 41.0938ZM262.711 33.2969C263.732 33.2969 264.49 33.526 264.984 33.9844C265.479 34.4427 265.727 35.1745 265.727 36.1797V42H264.781L264.531 40.7344H264.469C264.229 41.0469 263.979 41.3099 263.719 41.5234C263.458 41.7318 263.156 41.8906 262.812 42C262.474 42.1042 262.057 42.1562 261.562 42.1562C261.042 42.1562 260.578 42.0651 260.172 41.8828C259.771 41.7005 259.453 41.4245 259.219 41.0547C258.99 40.6849 258.875 40.2161 258.875 39.6484C258.875 38.7943 259.214 38.138 259.891 37.6797C260.568 37.2214 261.599 36.9714 262.984 36.9297L264.461 36.8672V36.3438C264.461 35.6042 264.302 35.0859 263.984 34.7891C263.667 34.4922 263.219 34.3438 262.641 34.3438C262.193 34.3438 261.766 34.4089 261.359 34.5391C260.953 34.6693 260.568 34.8229 260.203 35L259.805 34.0156C260.19 33.8177 260.633 33.6484 261.133 33.5078C261.633 33.3672 262.159 33.2969 262.711 33.2969ZM264.445 37.7812L263.141 37.8359C262.073 37.8776 261.32 38.0521 260.883 38.3594C260.445 38.6667 260.227 39.1016 260.227 39.6641C260.227 40.1536 260.375 40.5156 260.672 40.75C260.969 40.9844 261.362 41.1016 261.852 41.1016C262.612 41.1016 263.234 40.8906 263.719 40.4688C264.203 40.0469 264.445 39.4141 264.445 38.5703V37.7812ZM269.703 42H268.398V29.8438H269.703V42ZM277.984 39.6562C277.984 40.2031 277.846 40.6641 277.57 41.0391C277.299 41.4089 276.909 41.6875 276.398 41.875C275.893 42.0625 275.289 42.1562 274.586 42.1562C273.987 42.1562 273.469 42.1094 273.031 42.0156C272.594 41.9219 272.211 41.7891 271.883 41.6172V40.4219C272.232 40.5938 272.648 40.75 273.133 40.8906C273.617 41.0312 274.112 41.1016 274.617 41.1016C275.357 41.1016 275.893 40.9818 276.227 40.7422C276.56 40.5026 276.727 40.1771 276.727 39.7656C276.727 39.5312 276.659 39.3255 276.523 39.1484C276.393 38.9661 276.172 38.7917 275.859 38.625C275.547 38.4531 275.115 38.2656 274.562 38.0625C274.016 37.8542 273.542 37.6484 273.141 37.4453C272.745 37.237 272.438 36.9844 272.219 36.6875C272.005 36.3906 271.898 36.0052 271.898 35.5312C271.898 34.8073 272.19 34.2526 272.773 33.8672C273.362 33.4766 274.133 33.2812 275.086 33.2812C275.602 33.2812 276.083 33.3333 276.531 33.4375C276.984 33.5365 277.406 33.6719 277.797 33.8438L277.359 34.8828C277.005 34.7318 276.628 34.6042 276.227 34.5C275.826 34.3958 275.417 34.3438 275 34.3438C274.401 34.3438 273.94 34.4427 273.617 34.6406C273.299 34.8385 273.141 35.1094 273.141 35.4531C273.141 35.7188 273.214 35.9375 273.359 36.1094C273.51 36.2812 273.75 36.4427 274.078 36.5938C274.406 36.7448 274.839 36.9219 275.375 37.125C275.911 37.3229 276.375 37.5286 276.766 37.7422C277.156 37.9505 277.456 38.2057 277.664 38.5078C277.878 38.8047 277.984 39.1875 277.984 39.6562Z" fill="white"/>
<path d="M67.5625 112V100.578H68.8906V110.812H73.9609V112H67.5625ZM77.0234 103.438V112H75.7266V103.438H77.0234ZM76.3906 100.234C76.6042 100.234 76.7865 100.305 76.9375 100.445C77.0938 100.581 77.1719 100.794 77.1719 101.086C77.1719 101.372 77.0938 101.586 76.9375 101.727C76.7865 101.867 76.6042 101.938 76.3906 101.938C76.1667 101.938 75.9792 101.867 75.8281 101.727C75.6823 101.586 75.6094 101.372 75.6094 101.086C75.6094 100.794 75.6823 100.581 75.8281 100.445C75.9792 100.305 76.1667 100.234 76.3906 100.234ZM83.8281 103.281C84.8438 103.281 85.612 103.531 86.1328 104.031C86.6536 104.526 86.9141 105.323 86.9141 106.422V112H85.6328V106.508C85.6328 105.794 85.4688 105.26 85.1406 104.906C84.8177 104.552 84.3203 104.375 83.6484 104.375C82.7005 104.375 82.0339 104.643 81.6484 105.18C81.263 105.716 81.0703 106.495 81.0703 107.516V112H79.7734V103.438H80.8203L81.0156 104.672H81.0859C81.2682 104.37 81.5 104.117 81.7812 103.914C82.0625 103.706 82.3776 103.549 82.7266 103.445C83.0755 103.336 83.4427 103.281 83.8281 103.281ZM92.8828 103.281C93.612 103.281 94.237 103.443 94.7578 103.766C95.2786 104.089 95.6771 104.542 95.9531 105.125C96.2292 105.703 96.3672 106.38 96.3672 107.156V107.961H90.4531C90.4688 108.966 90.7188 109.732 91.2031 110.258C91.6875 110.784 92.3698 111.047 93.25 111.047C93.7917 111.047 94.2708 110.997 94.6875 110.898C95.1042 110.799 95.5365 110.654 95.9844 110.461V111.602C95.5521 111.794 95.1224 111.935 94.6953 112.023C94.2734 112.112 93.7734 112.156 93.1953 112.156C92.3724 112.156 91.6536 111.99 91.0391 111.656C90.4297 111.318 89.9557 110.823 89.6172 110.172C89.2786 109.521 89.1094 108.724 89.1094 107.781C89.1094 106.859 89.263 106.062 89.5703 105.391C89.8828 104.714 90.3203 104.193 90.8828 103.828C91.4505 103.464 92.1172 103.281 92.8828 103.281ZM92.8672 104.344C92.1745 104.344 91.6224 104.57 91.2109 105.023C90.7995 105.477 90.5547 106.109 90.4766 106.922H95.0078C95.0026 106.411 94.9219 105.964 94.7656 105.578C94.6146 105.188 94.3828 104.885 94.0703 104.672C93.7578 104.453 93.3568 104.344 92.8672 104.344ZM101.773 103.297C102.794 103.297 103.552 103.526 104.047 103.984C104.542 104.443 104.789 105.174 104.789 106.18V112H103.844L103.594 110.734H103.531C103.292 111.047 103.042 111.31 102.781 111.523C102.521 111.732 102.219 111.891 101.875 112C101.536 112.104 101.12 112.156 100.625 112.156C100.104 112.156 99.6406 112.065 99.2344 111.883C98.8333 111.701 98.5156 111.424 98.2812 111.055C98.0521 110.685 97.9375 110.216 97.9375 109.648C97.9375 108.794 98.276 108.138 98.9531 107.68C99.6302 107.221 100.661 106.971 102.047 106.93L103.523 106.867V106.344C103.523 105.604 103.365 105.086 103.047 104.789C102.729 104.492 102.281 104.344 101.703 104.344C101.255 104.344 100.828 104.409 100.422 104.539C100.016 104.669 99.6302 104.823 99.2656 105L98.8672 104.016C99.2526 103.818 99.6953 103.648 100.195 103.508C100.695 103.367 101.221 103.297 101.773 103.297ZM103.508 107.781L102.203 107.836C101.135 107.878 100.383 108.052 99.9453 108.359C99.5078 108.667 99.2891 109.102 99.2891 109.664C99.2891 110.154 99.4375 110.516 99.7344 110.75C100.031 110.984 100.424 111.102 100.914 111.102C101.674 111.102 102.297 110.891 102.781 110.469C103.266 110.047 103.508 109.414 103.508 108.57V107.781ZM111.352 103.281C111.523 103.281 111.703 103.292 111.891 103.312C112.078 103.328 112.245 103.352 112.391 103.383L112.227 104.586C112.086 104.549 111.93 104.521 111.758 104.5C111.586 104.479 111.424 104.469 111.273 104.469C110.93 104.469 110.604 104.539 110.297 104.68C109.995 104.815 109.729 105.013 109.5 105.273C109.271 105.529 109.091 105.839 108.961 106.203C108.831 106.562 108.766 106.964 108.766 107.406V112H107.461V103.438H108.539L108.68 105.016H108.734C108.911 104.698 109.125 104.409 109.375 104.148C109.625 103.883 109.914 103.672 110.242 103.516C110.576 103.359 110.945 103.281 111.352 103.281ZM125.523 112L124.117 108.375H119.539L118.141 112H116.797L121.266 100.531H122.461L126.898 112H125.523ZM123.719 107.195L122.383 103.594C122.352 103.5 122.299 103.346 122.227 103.133C122.159 102.919 122.089 102.698 122.016 102.469C121.943 102.24 121.883 102.055 121.836 101.914C121.784 102.128 121.727 102.341 121.664 102.555C121.607 102.763 121.549 102.958 121.492 103.141C121.435 103.318 121.385 103.469 121.344 103.594L119.984 107.195H123.719ZM129.594 112H128.289V99.8438H129.594V112ZM134.727 115.844C133.602 115.844 132.734 115.633 132.125 115.211C131.516 114.794 131.211 114.208 131.211 113.453C131.211 112.917 131.38 112.458 131.719 112.078C132.062 111.698 132.536 111.445 133.141 111.32C132.917 111.216 132.724 111.06 132.562 110.852C132.406 110.643 132.328 110.404 132.328 110.133C132.328 109.82 132.414 109.547 132.586 109.312C132.763 109.073 133.031 108.844 133.391 108.625C132.943 108.443 132.578 108.135 132.297 107.703C132.021 107.266 131.883 106.758 131.883 106.18C131.883 105.565 132.01 105.042 132.266 104.609C132.521 104.172 132.891 103.839 133.375 103.609C133.859 103.38 134.445 103.266 135.133 103.266C135.284 103.266 135.435 103.273 135.586 103.289C135.742 103.299 135.891 103.318 136.031 103.344C136.172 103.365 136.294 103.391 136.398 103.422H139.336V104.258L137.758 104.453C137.914 104.656 138.044 104.901 138.148 105.188C138.253 105.474 138.305 105.792 138.305 106.141C138.305 106.995 138.016 107.674 137.438 108.18C136.859 108.68 136.065 108.93 135.055 108.93C134.815 108.93 134.57 108.909 134.32 108.867C134.065 109.008 133.87 109.164 133.734 109.336C133.604 109.508 133.539 109.706 133.539 109.93C133.539 110.096 133.589 110.229 133.688 110.328C133.792 110.427 133.94 110.5 134.133 110.547C134.326 110.589 134.557 110.609 134.828 110.609H136.336C137.268 110.609 137.982 110.805 138.477 111.195C138.977 111.586 139.227 112.156 139.227 112.906C139.227 113.854 138.841 114.581 138.07 115.086C137.299 115.591 136.185 115.844 134.727 115.844ZM134.766 114.828C135.474 114.828 136.06 114.755 136.523 114.609C136.992 114.469 137.341 114.263 137.57 113.992C137.805 113.727 137.922 113.409 137.922 113.039C137.922 112.695 137.844 112.435 137.688 112.258C137.531 112.086 137.302 111.971 137 111.914C136.698 111.852 136.328 111.82 135.891 111.82H134.406C134.021 111.82 133.685 111.88 133.398 112C133.112 112.12 132.891 112.297 132.734 112.531C132.583 112.766 132.508 113.057 132.508 113.406C132.508 113.87 132.703 114.221 133.094 114.461C133.484 114.706 134.042 114.828 134.766 114.828ZM135.102 107.984C135.721 107.984 136.188 107.828 136.5 107.516C136.812 107.203 136.969 106.747 136.969 106.148C136.969 105.508 136.81 105.029 136.492 104.711C136.174 104.388 135.706 104.227 135.086 104.227C134.492 104.227 134.034 104.393 133.711 104.727C133.393 105.055 133.234 105.536 133.234 106.172C133.234 106.755 133.396 107.203 133.719 107.516C134.042 107.828 134.503 107.984 135.102 107.984ZM144.32 103.281C145.049 103.281 145.674 103.443 146.195 103.766C146.716 104.089 147.115 104.542 147.391 105.125C147.667 105.703 147.805 106.38 147.805 107.156V107.961H141.891C141.906 108.966 142.156 109.732 142.641 110.258C143.125 110.784 143.807 111.047 144.688 111.047C145.229 111.047 145.708 110.997 146.125 110.898C146.542 110.799 146.974 110.654 147.422 110.461V111.602C146.99 111.794 146.56 111.935 146.133 112.023C145.711 112.112 145.211 112.156 144.633 112.156C143.81 112.156 143.091 111.99 142.477 111.656C141.867 111.318 141.393 110.823 141.055 110.172C140.716 109.521 140.547 108.724 140.547 107.781C140.547 106.859 140.701 106.062 141.008 105.391C141.32 104.714 141.758 104.193 142.32 103.828C142.888 103.464 143.555 103.281 144.32 103.281ZM144.305 104.344C143.612 104.344 143.06 104.57 142.648 105.023C142.237 105.477 141.992 106.109 141.914 106.922H146.445C146.44 106.411 146.359 105.964 146.203 105.578C146.052 105.188 145.82 104.885 145.508 104.672C145.195 104.453 144.794 104.344 144.305 104.344ZM151.305 99.8438V102.883C151.305 103.232 151.294 103.57 151.273 103.898C151.258 104.227 151.245 104.482 151.234 104.664H151.305C151.539 104.279 151.878 103.953 152.32 103.688C152.763 103.422 153.328 103.289 154.016 103.289C155.089 103.289 155.943 103.661 156.578 104.406C157.219 105.146 157.539 106.247 157.539 107.711C157.539 108.674 157.393 109.487 157.102 110.148C156.81 110.81 156.398 111.31 155.867 111.648C155.336 111.987 154.708 112.156 153.984 112.156C153.307 112.156 152.75 112.031 152.312 111.781C151.88 111.526 151.547 111.216 151.312 110.852H151.211L150.945 112H150.008V99.8438H151.305ZM153.805 104.375C153.185 104.375 152.693 104.497 152.328 104.742C151.964 104.982 151.701 105.346 151.539 105.836C151.383 106.32 151.305 106.935 151.305 107.68V107.75C151.305 108.828 151.484 109.654 151.844 110.227C152.203 110.794 152.857 111.078 153.805 111.078C154.602 111.078 155.198 110.786 155.594 110.203C155.995 109.62 156.195 108.786 156.195 107.703C156.195 106.599 155.997 105.768 155.602 105.211C155.211 104.654 154.612 104.375 153.805 104.375ZM163.695 103.281C163.867 103.281 164.047 103.292 164.234 103.312C164.422 103.328 164.589 103.352 164.734 103.383L164.57 104.586C164.43 104.549 164.273 104.521 164.102 104.5C163.93 104.479 163.768 104.469 163.617 104.469C163.273 104.469 162.948 104.539 162.641 104.68C162.339 104.815 162.073 105.013 161.844 105.273C161.615 105.529 161.435 105.839 161.305 106.203C161.174 106.562 161.109 106.964 161.109 107.406V112H159.805V103.438H160.883L161.023 105.016H161.078C161.255 104.698 161.469 104.409 161.719 104.148C161.969 103.883 162.258 103.672 162.586 103.516C162.919 103.359 163.289 103.281 163.695 103.281ZM169.555 103.297C170.576 103.297 171.333 103.526 171.828 103.984C172.323 104.443 172.57 105.174 172.57 106.18V112H171.625L171.375 110.734H171.312C171.073 111.047 170.823 111.31 170.562 111.523C170.302 111.732 170 111.891 169.656 112C169.318 112.104 168.901 112.156 168.406 112.156C167.885 112.156 167.422 112.065 167.016 111.883C166.615 111.701 166.297 111.424 166.062 111.055C165.833 110.685 165.719 110.216 165.719 109.648C165.719 108.794 166.057 108.138 166.734 107.68C167.411 107.221 168.443 106.971 169.828 106.93L171.305 106.867V106.344C171.305 105.604 171.146 105.086 170.828 104.789C170.51 104.492 170.062 104.344 169.484 104.344C169.036 104.344 168.609 104.409 168.203 104.539C167.797 104.669 167.411 104.823 167.047 105L166.648 104.016C167.034 103.818 167.477 103.648 167.977 103.508C168.477 103.367 169.003 103.297 169.555 103.297ZM171.289 107.781L169.984 107.836C168.917 107.878 168.164 108.052 167.727 108.359C167.289 108.667 167.07 109.102 167.07 109.664C167.07 110.154 167.219 110.516 167.516 110.75C167.812 110.984 168.206 111.102 168.695 111.102C169.456 111.102 170.078 110.891 170.562 110.469C171.047 110.047 171.289 109.414 171.289 108.57V107.781Z" fill="white"/>
<path d="M70.5469 169.578C72.0208 169.578 73.0964 169.867 73.7734 170.445C74.4557 171.018 74.7969 171.841 74.7969 172.914C74.7969 173.398 74.7161 173.859 74.5547 174.297C74.3984 174.729 74.1432 175.112 73.7891 175.445C73.4349 175.773 72.9688 176.034 72.3906 176.227C71.8177 176.414 71.1146 176.508 70.2812 176.508H68.8906V181H67.5625V169.578H70.5469ZM70.4219 170.711H68.8906V175.367H70.1328C70.862 175.367 71.4688 175.289 71.9531 175.133C72.4427 174.977 72.8099 174.724 73.0547 174.375C73.2995 174.021 73.4219 173.552 73.4219 172.969C73.4219 172.208 73.1797 171.643 72.6953 171.273C72.2109 170.898 71.4531 170.711 70.4219 170.711ZM80.8828 172.281C81.0547 172.281 81.2344 172.292 81.4219 172.312C81.6094 172.328 81.776 172.352 81.9219 172.383L81.7578 173.586C81.6172 173.549 81.4609 173.521 81.2891 173.5C81.1172 173.479 80.9557 173.469 80.8047 173.469C80.4609 173.469 80.1354 173.539 79.8281 173.68C79.526 173.815 79.2604 174.013 79.0312 174.273C78.8021 174.529 78.6224 174.839 78.4922 175.203C78.362 175.562 78.2969 175.964 78.2969 176.406V181H76.9922V172.438H78.0703L78.2109 174.016H78.2656C78.4427 173.698 78.6562 173.409 78.9062 173.148C79.1562 172.883 79.4453 172.672 79.7734 172.516C80.1068 172.359 80.4766 172.281 80.8828 172.281ZM90.9219 176.703C90.9219 177.406 90.8307 178.034 90.6484 178.586C90.4661 179.138 90.2031 179.604 89.8594 179.984C89.5156 180.365 89.099 180.656 88.6094 180.859C88.125 181.057 87.5755 181.156 86.9609 181.156C86.388 181.156 85.862 181.057 85.3828 180.859C84.9089 180.656 84.4974 180.365 84.1484 179.984C83.8047 179.604 83.5365 179.138 83.3438 178.586C83.1562 178.034 83.0625 177.406 83.0625 176.703C83.0625 175.766 83.2214 174.969 83.5391 174.312C83.8568 173.651 84.3099 173.148 84.8984 172.805C85.4922 172.456 86.1979 172.281 87.0156 172.281C87.7969 172.281 88.4792 172.456 89.0625 172.805C89.651 173.154 90.1068 173.659 90.4297 174.32C90.7578 174.977 90.9219 175.771 90.9219 176.703ZM84.4062 176.703C84.4062 177.391 84.4974 177.987 84.6797 178.492C84.862 178.997 85.1432 179.388 85.5234 179.664C85.9036 179.94 86.3932 180.078 86.9922 180.078C87.5859 180.078 88.0729 179.94 88.4531 179.664C88.8385 179.388 89.1224 178.997 89.3047 178.492C89.487 177.987 89.5781 177.391 89.5781 176.703C89.5781 176.021 89.487 175.432 89.3047 174.938C89.1224 174.438 88.8411 174.052 88.4609 173.781C88.0807 173.51 87.5885 173.375 86.9844 173.375C86.0938 173.375 85.4401 173.669 85.0234 174.258C84.612 174.846 84.4062 175.661 84.4062 176.703ZM94.4609 168.844V171.883C94.4609 172.232 94.4505 172.57 94.4297 172.898C94.4141 173.227 94.401 173.482 94.3906 173.664H94.4609C94.6953 173.279 95.0339 172.953 95.4766 172.688C95.9193 172.422 96.4844 172.289 97.1719 172.289C98.2448 172.289 99.099 172.661 99.7344 173.406C100.375 174.146 100.695 175.247 100.695 176.711C100.695 177.674 100.549 178.487 100.258 179.148C99.9661 179.81 99.5547 180.31 99.0234 180.648C98.4922 180.987 97.8646 181.156 97.1406 181.156C96.4635 181.156 95.9062 181.031 95.4688 180.781C95.0365 180.526 94.7031 180.216 94.4688 179.852H94.3672L94.1016 181H93.1641V168.844H94.4609ZM96.9609 173.375C96.3411 173.375 95.849 173.497 95.4844 173.742C95.1198 173.982 94.8568 174.346 94.6953 174.836C94.5391 175.32 94.4609 175.935 94.4609 176.68V176.75C94.4609 177.828 94.6406 178.654 95 179.227C95.3594 179.794 96.013 180.078 96.9609 180.078C97.7578 180.078 98.3542 179.786 98.75 179.203C99.151 178.62 99.3516 177.786 99.3516 176.703C99.3516 175.599 99.1536 174.768 98.7578 174.211C98.3672 173.654 97.7682 173.375 96.9609 173.375ZM106.164 172.297C107.185 172.297 107.943 172.526 108.438 172.984C108.932 173.443 109.18 174.174 109.18 175.18V181H108.234L107.984 179.734H107.922C107.682 180.047 107.432 180.31 107.172 180.523C106.911 180.732 106.609 180.891 106.266 181C105.927 181.104 105.51 181.156 105.016 181.156C104.495 181.156 104.031 181.065 103.625 180.883C103.224 180.701 102.906 180.424 102.672 180.055C102.443 179.685 102.328 179.216 102.328 178.648C102.328 177.794 102.667 177.138 103.344 176.68C104.021 176.221 105.052 175.971 106.438 175.93L107.914 175.867V175.344C107.914 174.604 107.755 174.086 107.438 173.789C107.12 173.492 106.672 173.344 106.094 173.344C105.646 173.344 105.219 173.409 104.812 173.539C104.406 173.669 104.021 173.823 103.656 174L103.258 173.016C103.643 172.818 104.086 172.648 104.586 172.508C105.086 172.367 105.612 172.297 106.164 172.297ZM107.898 176.781L106.594 176.836C105.526 176.878 104.773 177.052 104.336 177.359C103.898 177.667 103.68 178.102 103.68 178.664C103.68 179.154 103.828 179.516 104.125 179.75C104.422 179.984 104.815 180.102 105.305 180.102C106.065 180.102 106.688 179.891 107.172 179.469C107.656 179.047 107.898 178.414 107.898 177.57V176.781ZM113.148 168.844V171.883C113.148 172.232 113.138 172.57 113.117 172.898C113.102 173.227 113.089 173.482 113.078 173.664H113.148C113.383 173.279 113.721 172.953 114.164 172.688C114.607 172.422 115.172 172.289 115.859 172.289C116.932 172.289 117.786 172.661 118.422 173.406C119.062 174.146 119.383 175.247 119.383 176.711C119.383 177.674 119.237 178.487 118.945 179.148C118.654 179.81 118.242 180.31 117.711 180.648C117.18 180.987 116.552 181.156 115.828 181.156C115.151 181.156 114.594 181.031 114.156 180.781C113.724 180.526 113.391 180.216 113.156 179.852H113.055L112.789 181H111.852V168.844H113.148ZM115.648 173.375C115.029 173.375 114.536 173.497 114.172 173.742C113.807 173.982 113.544 174.346 113.383 174.836C113.227 175.32 113.148 175.935 113.148 176.68V176.75C113.148 177.828 113.328 178.654 113.688 179.227C114.047 179.794 114.701 180.078 115.648 180.078C116.445 180.078 117.042 179.786 117.438 179.203C117.839 178.62 118.039 177.786 118.039 176.703C118.039 175.599 117.841 174.768 117.445 174.211C117.055 173.654 116.456 173.375 115.648 173.375ZM122.945 172.438V181H121.648V172.438H122.945ZM122.312 169.234C122.526 169.234 122.708 169.305 122.859 169.445C123.016 169.581 123.094 169.794 123.094 170.086C123.094 170.372 123.016 170.586 122.859 170.727C122.708 170.867 122.526 170.938 122.312 170.938C122.089 170.938 121.901 170.867 121.75 170.727C121.604 170.586 121.531 170.372 121.531 170.086C121.531 169.794 121.604 169.581 121.75 169.445C121.901 169.305 122.089 169.234 122.312 169.234ZM127 181H125.695V168.844H127V181ZM131.039 172.438V181H129.742V172.438H131.039ZM130.406 169.234C130.62 169.234 130.802 169.305 130.953 169.445C131.109 169.581 131.188 169.794 131.188 170.086C131.188 170.372 131.109 170.586 130.953 170.727C130.802 170.867 130.62 170.938 130.406 170.938C130.182 170.938 129.995 170.867 129.844 170.727C129.698 170.586 129.625 170.372 129.625 170.086C129.625 169.794 129.698 169.581 129.844 169.445C129.995 169.305 130.182 169.234 130.406 169.234ZM136.555 180.094C136.768 180.094 136.987 180.076 137.211 180.039C137.435 180.003 137.617 179.958 137.758 179.906V180.914C137.607 180.982 137.396 181.039 137.125 181.086C136.859 181.133 136.599 181.156 136.344 181.156C135.891 181.156 135.479 181.078 135.109 180.922C134.74 180.76 134.443 180.49 134.219 180.109C134 179.729 133.891 179.203 133.891 178.531V173.453H132.672V172.82L133.898 172.312L134.414 170.453H135.195V172.438H137.703V173.453H135.195V178.492C135.195 179.029 135.318 179.43 135.562 179.695C135.812 179.961 136.143 180.094 136.555 180.094ZM138.141 172.438H139.531L141.422 177.406C141.531 177.698 141.633 177.979 141.727 178.25C141.82 178.516 141.904 178.771 141.977 179.016C142.049 179.26 142.107 179.497 142.148 179.727H142.203C142.276 179.466 142.38 179.125 142.516 178.703C142.651 178.276 142.797 177.841 142.953 177.398L144.742 172.438H146.141L142.414 182.258C142.216 182.784 141.984 183.242 141.719 183.633C141.458 184.023 141.141 184.323 140.766 184.531C140.391 184.745 139.938 184.852 139.406 184.852C139.161 184.852 138.945 184.836 138.758 184.805C138.57 184.779 138.409 184.747 138.273 184.711V183.672C138.388 183.698 138.526 183.721 138.688 183.742C138.854 183.763 139.026 183.773 139.203 183.773C139.526 183.773 139.805 183.711 140.039 183.586C140.279 183.466 140.484 183.289 140.656 183.055C140.828 182.82 140.977 182.542 141.102 182.219L141.57 181.016L138.141 172.438ZM154.867 172.297C155.888 172.297 156.646 172.526 157.141 172.984C157.635 173.443 157.883 174.174 157.883 175.18V181H156.938L156.688 179.734H156.625C156.385 180.047 156.135 180.31 155.875 180.523C155.615 180.732 155.312 180.891 154.969 181C154.63 181.104 154.214 181.156 153.719 181.156C153.198 181.156 152.734 181.065 152.328 180.883C151.927 180.701 151.609 180.424 151.375 180.055C151.146 179.685 151.031 179.216 151.031 178.648C151.031 177.794 151.37 177.138 152.047 176.68C152.724 176.221 153.755 175.971 155.141 175.93L156.617 175.867V175.344C156.617 174.604 156.458 174.086 156.141 173.789C155.823 173.492 155.375 173.344 154.797 173.344C154.349 173.344 153.922 173.409 153.516 173.539C153.109 173.669 152.724 173.823 152.359 174L151.961 173.016C152.346 172.818 152.789 172.648 153.289 172.508C153.789 172.367 154.315 172.297 154.867 172.297ZM156.602 176.781L155.297 176.836C154.229 176.878 153.477 177.052 153.039 177.359C152.602 177.667 152.383 178.102 152.383 178.664C152.383 179.154 152.531 179.516 152.828 179.75C153.125 179.984 153.518 180.102 154.008 180.102C154.768 180.102 155.391 179.891 155.875 179.469C156.359 179.047 156.602 178.414 156.602 177.57V176.781ZM164.609 172.281C165.625 172.281 166.393 172.531 166.914 173.031C167.435 173.526 167.695 174.323 167.695 175.422V181H166.414V175.508C166.414 174.794 166.25 174.26 165.922 173.906C165.599 173.552 165.102 173.375 164.43 173.375C163.482 173.375 162.815 173.643 162.43 174.18C162.044 174.716 161.852 175.495 161.852 176.516V181H160.555V172.438H161.602L161.797 173.672H161.867C162.049 173.37 162.281 173.117 162.562 172.914C162.844 172.706 163.159 172.549 163.508 172.445C163.857 172.336 164.224 172.281 164.609 172.281ZM173.414 181.156C172.331 181.156 171.471 180.786 170.836 180.047C170.206 179.307 169.891 178.208 169.891 176.75C169.891 175.276 170.214 174.164 170.859 173.414C171.505 172.659 172.365 172.281 173.438 172.281C173.891 172.281 174.286 172.341 174.625 172.461C174.964 172.581 175.255 172.742 175.5 172.945C175.745 173.143 175.951 173.37 176.117 173.625H176.211C176.19 173.464 176.169 173.242 176.148 172.961C176.128 172.68 176.117 172.451 176.117 172.273V168.844H177.414V181H176.367L176.172 179.781H176.117C175.956 180.036 175.75 180.268 175.5 180.477C175.255 180.685 174.961 180.852 174.617 180.977C174.279 181.096 173.878 181.156 173.414 181.156ZM173.617 180.078C174.534 180.078 175.182 179.818 175.562 179.297C175.943 178.776 176.133 178.003 176.133 176.977V176.742C176.133 175.654 175.951 174.818 175.586 174.234C175.227 173.651 174.57 173.359 173.617 173.359C172.82 173.359 172.224 173.667 171.828 174.281C171.432 174.891 171.234 175.724 171.234 176.781C171.234 177.833 171.43 178.646 171.82 179.219C172.216 179.792 172.815 180.078 173.617 180.078ZM190.961 177.961C190.961 178.638 190.792 179.216 190.453 179.695C190.12 180.169 189.651 180.531 189.047 180.781C188.443 181.031 187.732 181.156 186.914 181.156C186.482 181.156 186.073 181.135 185.688 181.094C185.302 181.052 184.948 180.992 184.625 180.914C184.302 180.836 184.018 180.74 183.773 180.625V179.352C184.164 179.513 184.641 179.664 185.203 179.805C185.766 179.94 186.354 180.008 186.969 180.008C187.542 180.008 188.026 179.932 188.422 179.781C188.818 179.625 189.117 179.404 189.32 179.117C189.529 178.826 189.633 178.477 189.633 178.07C189.633 177.68 189.547 177.354 189.375 177.094C189.203 176.828 188.917 176.589 188.516 176.375C188.12 176.156 187.578 175.924 186.891 175.68C186.406 175.508 185.979 175.32 185.609 175.117C185.24 174.909 184.93 174.674 184.68 174.414C184.43 174.154 184.24 173.852 184.109 173.508C183.984 173.164 183.922 172.771 183.922 172.328C183.922 171.719 184.076 171.198 184.383 170.766C184.695 170.328 185.125 169.995 185.672 169.766C186.224 169.531 186.857 169.414 187.57 169.414C188.18 169.414 188.742 169.471 189.258 169.586C189.779 169.701 190.255 169.854 190.688 170.047L190.273 171.188C189.862 171.016 189.424 170.872 188.961 170.758C188.503 170.643 188.029 170.586 187.539 170.586C187.049 170.586 186.635 170.659 186.297 170.805C185.964 170.945 185.708 171.146 185.531 171.406C185.354 171.667 185.266 171.977 185.266 172.336C185.266 172.737 185.349 173.07 185.516 173.336C185.688 173.602 185.958 173.839 186.328 174.047C186.703 174.25 187.198 174.464 187.812 174.688C188.484 174.932 189.055 175.193 189.523 175.469C189.992 175.74 190.349 176.073 190.594 176.469C190.839 176.859 190.961 177.357 190.961 177.961ZM195.867 180.094C196.081 180.094 196.299 180.076 196.523 180.039C196.747 180.003 196.93 179.958 197.07 179.906V180.914C196.919 180.982 196.708 181.039 196.438 181.086C196.172 181.133 195.911 181.156 195.656 181.156C195.203 181.156 194.792 181.078 194.422 180.922C194.052 180.76 193.755 180.49 193.531 180.109C193.312 179.729 193.203 179.203 193.203 178.531V173.453H191.984V172.82L193.211 172.312L193.727 170.453H194.508V172.438H197.016V173.453H194.508V178.492C194.508 179.029 194.63 179.43 194.875 179.695C195.125 179.961 195.456 180.094 195.867 180.094ZM202.008 172.297C203.029 172.297 203.786 172.526 204.281 172.984C204.776 173.443 205.023 174.174 205.023 175.18V181H204.078L203.828 179.734H203.766C203.526 180.047 203.276 180.31 203.016 180.523C202.755 180.732 202.453 180.891 202.109 181C201.771 181.104 201.354 181.156 200.859 181.156C200.339 181.156 199.875 181.065 199.469 180.883C199.068 180.701 198.75 180.424 198.516 180.055C198.286 179.685 198.172 179.216 198.172 178.648C198.172 177.794 198.51 177.138 199.188 176.68C199.865 176.221 200.896 175.971 202.281 175.93L203.758 175.867V175.344C203.758 174.604 203.599 174.086 203.281 173.789C202.964 173.492 202.516 173.344 201.938 173.344C201.49 173.344 201.062 173.409 200.656 173.539C200.25 173.669 199.865 173.823 199.5 174L199.102 173.016C199.487 172.818 199.93 172.648 200.43 172.508C200.93 172.367 201.456 172.297 202.008 172.297ZM203.742 176.781L202.438 176.836C201.37 176.878 200.617 177.052 200.18 177.359C199.742 177.667 199.523 178.102 199.523 178.664C199.523 179.154 199.672 179.516 199.969 179.75C200.266 179.984 200.659 180.102 201.148 180.102C201.909 180.102 202.531 179.891 203.016 179.469C203.5 179.047 203.742 178.414 203.742 177.57V176.781ZM210.461 180.094C210.674 180.094 210.893 180.076 211.117 180.039C211.341 180.003 211.523 179.958 211.664 179.906V180.914C211.513 180.982 211.302 181.039 211.031 181.086C210.766 181.133 210.505 181.156 210.25 181.156C209.797 181.156 209.385 181.078 209.016 180.922C208.646 180.76 208.349 180.49 208.125 180.109C207.906 179.729 207.797 179.203 207.797 178.531V173.453H206.578V172.82L207.805 172.312L208.32 170.453H209.102V172.438H211.609V173.453H209.102V178.492C209.102 179.029 209.224 179.43 209.469 179.695C209.719 179.961 210.049 180.094 210.461 180.094ZM214.695 172.438V181H213.398V172.438H214.695ZM214.062 169.234C214.276 169.234 214.458 169.305 214.609 169.445C214.766 169.581 214.844 169.794 214.844 170.086C214.844 170.372 214.766 170.586 214.609 170.727C214.458 170.867 214.276 170.938 214.062 170.938C213.839 170.938 213.651 170.867 213.5 170.727C213.354 170.586 213.281 170.372 213.281 170.086C213.281 169.794 213.354 169.581 213.5 169.445C213.651 169.305 213.839 169.234 214.062 169.234ZM222.984 178.656C222.984 179.203 222.846 179.664 222.57 180.039C222.299 180.409 221.909 180.688 221.398 180.875C220.893 181.062 220.289 181.156 219.586 181.156C218.987 181.156 218.469 181.109 218.031 181.016C217.594 180.922 217.211 180.789 216.883 180.617V179.422C217.232 179.594 217.648 179.75 218.133 179.891C218.617 180.031 219.112 180.102 219.617 180.102C220.357 180.102 220.893 179.982 221.227 179.742C221.56 179.503 221.727 179.177 221.727 178.766C221.727 178.531 221.659 178.326 221.523 178.148C221.393 177.966 221.172 177.792 220.859 177.625C220.547 177.453 220.115 177.266 219.562 177.062C219.016 176.854 218.542 176.648 218.141 176.445C217.745 176.237 217.438 175.984 217.219 175.688C217.005 175.391 216.898 175.005 216.898 174.531C216.898 173.807 217.19 173.253 217.773 172.867C218.362 172.477 219.133 172.281 220.086 172.281C220.602 172.281 221.083 172.333 221.531 172.438C221.984 172.536 222.406 172.672 222.797 172.844L222.359 173.883C222.005 173.732 221.628 173.604 221.227 173.5C220.826 173.396 220.417 173.344 220 173.344C219.401 173.344 218.94 173.443 218.617 173.641C218.299 173.839 218.141 174.109 218.141 174.453C218.141 174.719 218.214 174.938 218.359 175.109C218.51 175.281 218.75 175.443 219.078 175.594C219.406 175.745 219.839 175.922 220.375 176.125C220.911 176.323 221.375 176.529 221.766 176.742C222.156 176.951 222.456 177.206 222.664 177.508C222.878 177.805 222.984 178.188 222.984 178.656ZM227.836 180.094C228.049 180.094 228.268 180.076 228.492 180.039C228.716 180.003 228.898 179.958 229.039 179.906V180.914C228.888 180.982 228.677 181.039 228.406 181.086C228.141 181.133 227.88 181.156 227.625 181.156C227.172 181.156 226.76 181.078 226.391 180.922C226.021 180.76 225.724 180.49 225.5 180.109C225.281 179.729 225.172 179.203 225.172 178.531V173.453H223.953V172.82L225.18 172.312L225.695 170.453H226.477V172.438H228.984V173.453H226.477V178.492C226.477 179.029 226.599 179.43 226.844 179.695C227.094 179.961 227.424 180.094 227.836 180.094ZM232.07 172.438V181H230.773V172.438H232.07ZM231.438 169.234C231.651 169.234 231.833 169.305 231.984 169.445C232.141 169.581 232.219 169.794 232.219 170.086C232.219 170.372 232.141 170.586 231.984 170.727C231.833 170.867 231.651 170.938 231.438 170.938C231.214 170.938 231.026 170.867 230.875 170.727C230.729 170.586 230.656 170.372 230.656 170.086C230.656 169.794 230.729 169.581 230.875 169.445C231.026 169.305 231.214 169.234 231.438 169.234ZM238.25 181.156C237.479 181.156 236.799 180.997 236.211 180.68C235.622 180.362 235.164 179.878 234.836 179.227C234.508 178.576 234.344 177.755 234.344 176.766C234.344 175.729 234.516 174.883 234.859 174.227C235.208 173.565 235.688 173.076 236.297 172.758C236.906 172.44 237.599 172.281 238.375 172.281C238.802 172.281 239.214 172.326 239.609 172.414C240.01 172.497 240.339 172.604 240.594 172.734L240.203 173.82C239.943 173.716 239.641 173.622 239.297 173.539C238.958 173.456 238.641 173.414 238.344 173.414C237.75 173.414 237.255 173.542 236.859 173.797C236.469 174.052 236.174 174.427 235.977 174.922C235.784 175.417 235.688 176.026 235.688 176.75C235.688 177.443 235.781 178.034 235.969 178.523C236.161 179.013 236.445 179.388 236.82 179.648C237.201 179.904 237.674 180.031 238.242 180.031C238.695 180.031 239.104 179.984 239.469 179.891C239.833 179.792 240.164 179.677 240.461 179.547V180.703C240.174 180.849 239.854 180.961 239.5 181.039C239.151 181.117 238.734 181.156 238.25 181.156ZM248.031 178.656C248.031 179.203 247.893 179.664 247.617 180.039C247.346 180.409 246.956 180.688 246.445 180.875C245.94 181.062 245.336 181.156 244.633 181.156C244.034 181.156 243.516 181.109 243.078 181.016C242.641 180.922 242.258 180.789 241.93 180.617V179.422C242.279 179.594 242.695 179.75 243.18 179.891C243.664 180.031 244.159 180.102 244.664 180.102C245.404 180.102 245.94 179.982 246.273 179.742C246.607 179.503 246.773 179.177 246.773 178.766C246.773 178.531 246.706 178.326 246.57 178.148C246.44 177.966 246.219 177.792 245.906 177.625C245.594 177.453 245.161 177.266 244.609 177.062C244.062 176.854 243.589 176.648 243.188 176.445C242.792 176.237 242.484 175.984 242.266 175.688C242.052 175.391 241.945 175.005 241.945 174.531C241.945 173.807 242.237 173.253 242.82 172.867C243.409 172.477 244.18 172.281 245.133 172.281C245.648 172.281 246.13 172.333 246.578 172.438C247.031 172.536 247.453 172.672 247.844 172.844L247.406 173.883C247.052 173.732 246.674 173.604 246.273 173.5C245.872 173.396 245.464 173.344 245.047 173.344C244.448 173.344 243.987 173.443 243.664 173.641C243.346 173.839 243.188 174.109 243.188 174.453C243.188 174.719 243.26 174.938 243.406 175.109C243.557 175.281 243.797 175.443 244.125 175.594C244.453 175.745 244.885 175.922 245.422 176.125C245.958 176.323 246.422 176.529 246.812 176.742C247.203 176.951 247.503 177.206 247.711 177.508C247.924 177.805 248.031 178.188 248.031 178.656Z" fill="white"/>
<path d="M26 31L35.4826 40.2997C35.877 40.6864 36.5102 40.6802 36.8969 40.2858L46 31" stroke="black" stroke-opacity="0.4" stroke-width="3" stroke-linecap="round"/>
<path d="M24 101L33.4826 110.3C33.877 110.686 34.5102 110.68 34.8969 110.286L44 101" stroke="black" stroke-opacity="0.4" stroke-width="3" stroke-linecap="round"/>
<defs>
<filter id="filter0_d_336_5" x="0" y="0" width="327" height="68" filterUnits="userSpaceOnUse" color-interpolation-filters="sRGB">
<feFlood flood-opacity="0" result="BackgroundImageFix"/>
<feColorMatrix in="SourceAlpha" type="matrix" values="0 0 0 0 0 0 0 0 0 0 0 0 0 0 0 0 0 0 127 0" result="hardAlpha"/>
<feOffset dx="-2" dy="-2"/>
<feGaussianBlur stdDeviation="2"/>
<feComposite in2="hardAlpha" operator="out"/>
<feColorMatrix type="matrix" values="0 0 0 0 0 0 0 0 0 0 0 0 0 0 0 0 0 0 0.25 0"/>
<feBlend mode="normal" in2="BackgroundImageFix" result="effect1_dropShadow_336_5"/>
<feBlend mode="normal" in="SourceGraphic" in2="effect1_dropShadow_336_5" result="shape"/>
</filter>
<filter id="filter1_d_336_5" x="0" y="70" width="327" height="68" filterUnits="userSpaceOnUse" color-interpolation-filters="sRGB">
<feFlood flood-opacity="0" result="BackgroundImageFix"/>
<feColorMatrix in="SourceAlpha" type="matrix" values="0 0 0 0 0 0 0 0 0 0 0 0 0 0 0 0 0 0 127 0" result="hardAlpha"/>
<feOffset dx="-2" dy="-2"/>
<feGaussianBlur stdDeviation="2"/>
<feComposite in2="hardAlpha" operator="out"/>
<feColorMatrix type="matrix" values="0 0 0 0 0 0 0 0 0 0 0 0 0 0 0 0 0 0 0.25 0"/>
<feBlend mode="normal" in2="BackgroundImageFix" result="effect1_dropShadow_336_5"/>
<feBlend mode="normal" in="SourceGraphic" in2="effect1_dropShadow_336_5" result="shape"/>
</filter>
<filter id="filter2_d_336_5" x="0" y="140" width="327" height="68" filterUnits="userSpaceOnUse" color-interpolation-filters="sRGB">
<feFlood flood-opacity="0" result="BackgroundImageFix"/>
<feColorMatrix in="SourceAlpha" type="matrix" values="0 0 0 0 0 0 0 0 0 0 0 0 0 0 0 0 0 0 127 0" result="hardAlpha"/>
<feOffset dx="-2" dy="-2"/>
<feGaussianBlur stdDeviation="2"/>
<feComposite in2="hardAlpha" operator="out"/>
<feColorMatrix type="matrix" values="0 0 0 0 0 0 0 0 0 0 0 0 0 0 0 0 0 0 0.25 0"/>
<feBlend mode="normal" in2="BackgroundImageFix" result="effect1_dropShadow_336_5"/>
<feBlend mode="normal" in="SourceGraphic" in2="effect1_dropShadow_336_5" result="shape"/>
</filter>
</defs>
</svg>
