<svg width="238" height="193" viewBox="0 0 238 193" fill="none" xmlns="http://www.w3.org/2000/svg">
<g filter="url(#filter0_d_336_6)">
<rect x="6" y="6" width="200" height="150" rx="10" fill="#173F5F"/>
</g>
<path d="M57.957 36H56.7949V26.0059H62.3594V27.0312H57.957V30.6953H62.0928V31.7139H57.957V36ZM66.6592 28.3848C67.5524 28.3848 68.2155 28.5853 68.6484 28.9863C69.0814 29.3874 69.2979 30.0277 69.2979 30.9072V36H68.4707L68.252 34.8926H68.1973C67.9876 35.166 67.7689 35.3962 67.541 35.583C67.3132 35.7653 67.0488 35.9043 66.748 36C66.4518 36.0911 66.0872 36.1367 65.6543 36.1367C65.1986 36.1367 64.793 36.057 64.4375 35.8975C64.0866 35.738 63.8086 35.4964 63.6035 35.1729C63.403 34.8493 63.3027 34.4391 63.3027 33.9424C63.3027 33.195 63.599 32.6208 64.1914 32.2197C64.7839 31.8187 65.6862 31.5999 66.8984 31.5635L68.1904 31.5088V31.0508C68.1904 30.4036 68.0514 29.9502 67.7734 29.6904C67.4954 29.4307 67.1035 29.3008 66.5977 29.3008C66.2057 29.3008 65.832 29.3577 65.4766 29.4717C65.1211 29.5856 64.7839 29.7201 64.4648 29.875L64.1162 29.0137C64.4535 28.8405 64.8408 28.6924 65.2783 28.5693C65.7158 28.4463 66.1761 28.3848 66.6592 28.3848ZM68.1768 32.3086L67.0352 32.3564C66.1009 32.3929 65.4424 32.5456 65.0596 32.8145C64.6768 33.0833 64.4854 33.4639 64.4854 33.9561C64.4854 34.3844 64.6152 34.7012 64.875 34.9062C65.1348 35.1113 65.4788 35.2139 65.9072 35.2139C66.5726 35.2139 67.1172 35.0293 67.541 34.6602C67.9648 34.291 68.1768 33.7373 68.1768 32.999V32.3086ZM73.2832 36L70.4395 28.5078H71.6562L73.3037 33.04C73.4176 33.3499 73.5339 33.6917 73.6523 34.0654C73.7708 34.4391 73.8529 34.7399 73.8984 34.9678H73.9463C74.001 34.7399 74.0921 34.4391 74.2197 34.0654C74.3473 33.6872 74.4635 33.3454 74.5684 33.04L76.2158 28.5078H77.4326L74.582 36H73.2832ZM85.0957 32.2402C85.0957 32.8555 85.016 33.4046 84.8564 33.8877C84.6969 34.3708 84.4668 34.7786 84.166 35.1113C83.8652 35.444 83.5007 35.6992 83.0723 35.877C82.6484 36.0501 82.1676 36.1367 81.6299 36.1367C81.1286 36.1367 80.6683 36.0501 80.249 35.877C79.8343 35.6992 79.4743 35.444 79.1689 35.1113C78.8682 34.7786 78.6335 34.3708 78.4648 33.8877C78.3008 33.4046 78.2188 32.8555 78.2188 32.2402C78.2188 31.4199 78.3577 30.7227 78.6357 30.1484C78.9137 29.5697 79.3102 29.1299 79.8252 28.8291C80.3447 28.5238 80.9622 28.3711 81.6777 28.3711C82.3613 28.3711 82.9583 28.5238 83.4688 28.8291C83.9837 29.1344 84.3825 29.5765 84.665 30.1553C84.9521 30.7295 85.0957 31.4245 85.0957 32.2402ZM79.3945 32.2402C79.3945 32.8418 79.4743 33.3636 79.6338 33.8057C79.7933 34.2477 80.0394 34.5895 80.3721 34.8311C80.7048 35.0726 81.1331 35.1934 81.6572 35.1934C82.1768 35.1934 82.6029 35.0726 82.9355 34.8311C83.2728 34.5895 83.5212 34.2477 83.6807 33.8057C83.8402 33.3636 83.9199 32.8418 83.9199 32.2402C83.9199 31.6432 83.8402 31.1283 83.6807 30.6953C83.5212 30.2578 83.2751 29.9206 82.9424 29.6836C82.6097 29.4466 82.179 29.3281 81.6504 29.3281C80.8711 29.3281 80.2992 29.5856 79.9346 30.1006C79.5745 30.6156 79.3945 31.3288 79.3945 32.2402ZM90.4619 28.3711C90.6123 28.3711 90.7695 28.3802 90.9336 28.3984C91.0977 28.4121 91.2435 28.4326 91.3711 28.46L91.2275 29.5127C91.1045 29.4808 90.9678 29.4557 90.8174 29.4375C90.667 29.4193 90.5257 29.4102 90.3936 29.4102C90.0928 29.4102 89.8079 29.4717 89.5391 29.5947C89.2747 29.7132 89.0423 29.8864 88.8418 30.1143C88.6413 30.3376 88.484 30.6087 88.3701 30.9277C88.2562 31.2422 88.1992 31.5931 88.1992 31.9805V36H87.0576V28.5078H88.001L88.124 29.8887H88.1719C88.3268 29.6107 88.5137 29.3577 88.7324 29.1299C88.9512 28.8975 89.2041 28.7129 89.4912 28.5762C89.7829 28.4395 90.1064 28.3711 90.4619 28.3711ZM93.9209 28.5078V36H92.7861V28.5078H93.9209ZM93.3672 25.7051C93.554 25.7051 93.7135 25.7666 93.8457 25.8896C93.9824 26.0081 94.0508 26.195 94.0508 26.4502C94.0508 26.7008 93.9824 26.8877 93.8457 27.0107C93.7135 27.1338 93.554 27.1953 93.3672 27.1953C93.1712 27.1953 93.0072 27.1338 92.875 27.0107C92.7474 26.8877 92.6836 26.7008 92.6836 26.4502C92.6836 26.195 92.7474 26.0081 92.875 25.8896C93.0072 25.7666 93.1712 25.7051 93.3672 25.7051ZM98.7471 35.207C98.9339 35.207 99.1253 35.1911 99.3213 35.1592C99.5173 35.1273 99.6768 35.0885 99.7998 35.043V35.9248C99.6676 35.984 99.4831 36.0342 99.2461 36.0752C99.0137 36.1162 98.7858 36.1367 98.5625 36.1367C98.166 36.1367 97.806 36.0684 97.4824 35.9316C97.1589 35.7904 96.8991 35.5534 96.7031 35.2207C96.5117 34.888 96.416 34.4277 96.416 33.8398V29.3965H95.3496V28.8428L96.4229 28.3984L96.874 26.7715H97.5576V28.5078H99.752V29.3965H97.5576V33.8057C97.5576 34.2751 97.6647 34.626 97.8789 34.8584C98.0977 35.0908 98.387 35.207 98.7471 35.207ZM104.202 28.3711C104.84 28.3711 105.387 28.5124 105.843 28.7949C106.299 29.0775 106.647 29.474 106.889 29.9844C107.13 30.4902 107.251 31.0827 107.251 31.7617V32.4658H102.076C102.09 33.3454 102.309 34.0153 102.732 34.4756C103.156 34.9359 103.753 35.166 104.523 35.166C104.997 35.166 105.417 35.1227 105.781 35.0361C106.146 34.9495 106.524 34.8219 106.916 34.6533V35.6514C106.538 35.82 106.162 35.943 105.788 36.0205C105.419 36.098 104.981 36.1367 104.476 36.1367C103.756 36.1367 103.127 35.9909 102.589 35.6992C102.056 35.403 101.641 34.9701 101.345 34.4004C101.049 33.8307 100.9 33.1335 100.9 32.3086C100.9 31.502 101.035 30.8047 101.304 30.2168C101.577 29.6243 101.96 29.1686 102.452 28.8496C102.949 28.5306 103.532 28.3711 104.202 28.3711ZM104.188 29.3008C103.582 29.3008 103.099 29.499 102.739 29.8955C102.379 30.292 102.165 30.8457 102.097 31.5566H106.062C106.057 31.11 105.986 30.7181 105.85 30.3809C105.717 30.0391 105.515 29.7747 105.241 29.5879C104.968 29.3965 104.617 29.3008 104.188 29.3008ZM115.235 35.207C115.422 35.207 115.614 35.1911 115.81 35.1592C116.006 35.1273 116.165 35.0885 116.288 35.043V35.9248C116.156 35.984 115.971 36.0342 115.734 36.0752C115.502 36.1162 115.274 36.1367 115.051 36.1367C114.654 36.1367 114.294 36.0684 113.971 35.9316C113.647 35.7904 113.387 35.5534 113.191 35.2207C113 34.888 112.904 34.4277 112.904 33.8398V29.3965H111.838V28.8428L112.911 28.3984L113.362 26.7715H114.046V28.5078H116.24V29.3965H114.046V33.8057C114.046 34.2751 114.153 34.626 114.367 34.8584C114.586 35.0908 114.875 35.207 115.235 35.207ZM124.266 32.2402C124.266 32.8555 124.186 33.4046 124.026 33.8877C123.867 34.3708 123.637 34.7786 123.336 35.1113C123.035 35.444 122.671 35.6992 122.242 35.877C121.818 36.0501 121.338 36.1367 120.8 36.1367C120.299 36.1367 119.838 36.0501 119.419 35.877C119.004 35.6992 118.644 35.444 118.339 35.1113C118.038 34.7786 117.803 34.3708 117.635 33.8877C117.471 33.4046 117.389 32.8555 117.389 32.2402C117.389 31.4199 117.528 30.7227 117.806 30.1484C118.084 29.5697 118.48 29.1299 118.995 28.8291C119.515 28.5238 120.132 28.3711 120.848 28.3711C121.531 28.3711 122.128 28.5238 122.639 28.8291C123.154 29.1344 123.552 29.5765 123.835 30.1553C124.122 30.7295 124.266 31.4245 124.266 32.2402ZM118.564 32.2402C118.564 32.8418 118.644 33.3636 118.804 33.8057C118.963 34.2477 119.209 34.5895 119.542 34.8311C119.875 35.0726 120.303 35.1934 120.827 35.1934C121.347 35.1934 121.773 35.0726 122.105 34.8311C122.443 34.5895 122.691 34.2477 122.851 33.8057C123.01 33.3636 123.09 32.8418 123.09 32.2402C123.09 31.6432 123.01 31.1283 122.851 30.6953C122.691 30.2578 122.445 29.9206 122.112 29.6836C121.78 29.4466 121.349 29.3281 120.82 29.3281C120.041 29.3281 119.469 29.5856 119.104 30.1006C118.744 30.6156 118.564 31.3288 118.564 32.2402ZM129.748 28.3711C130.682 28.3711 131.427 28.6924 131.983 29.335C132.539 29.9775 132.817 30.9437 132.817 32.2334C132.817 33.0856 132.69 33.8011 132.435 34.3799C132.179 34.9587 131.819 35.3962 131.354 35.6924C130.894 35.9886 130.35 36.1367 129.721 36.1367C129.324 36.1367 128.976 36.0843 128.675 35.9795C128.374 35.8747 128.117 35.7334 127.902 35.5557C127.688 35.3779 127.51 35.1842 127.369 34.9746H127.287C127.301 35.1523 127.317 35.3665 127.335 35.6172C127.358 35.8678 127.369 36.0866 127.369 36.2734V39.3496H126.228V28.5078H127.164L127.314 29.6152H127.369C127.515 29.3874 127.693 29.18 127.902 28.9932C128.112 28.8018 128.367 28.6514 128.668 28.542C128.973 28.4281 129.333 28.3711 129.748 28.3711ZM129.55 29.3281C129.03 29.3281 128.611 29.4284 128.292 29.6289C127.978 29.8294 127.747 30.1302 127.602 30.5312C127.456 30.9277 127.378 31.4268 127.369 32.0283V32.2471C127.369 32.8805 127.438 33.416 127.574 33.8535C127.715 34.291 127.946 34.6237 128.265 34.8516C128.588 35.0794 129.021 35.1934 129.563 35.1934C130.028 35.1934 130.416 35.068 130.726 34.8174C131.035 34.5667 131.266 34.2181 131.416 33.7715C131.571 33.3203 131.648 32.8031 131.648 32.2197C131.648 31.3356 131.475 30.6338 131.129 30.1143C130.787 29.5902 130.261 29.3281 129.55 29.3281ZM135.935 28.5078V36H134.8V28.5078H135.935ZM135.381 25.7051C135.568 25.7051 135.727 25.7666 135.859 25.8896C135.996 26.0081 136.064 26.195 136.064 26.4502C136.064 26.7008 135.996 26.8877 135.859 27.0107C135.727 27.1338 135.568 27.1953 135.381 27.1953C135.185 27.1953 135.021 27.1338 134.889 27.0107C134.761 26.8877 134.697 26.7008 134.697 26.4502C134.697 26.195 134.761 26.0081 134.889 25.8896C135.021 25.7666 135.185 25.7051 135.381 25.7051ZM141.342 36.1367C140.667 36.1367 140.073 35.9977 139.558 35.7197C139.043 35.4417 138.642 35.0179 138.354 34.4482C138.067 33.8786 137.924 33.1608 137.924 32.2949C137.924 31.388 138.074 30.6475 138.375 30.0732C138.68 29.4945 139.1 29.0661 139.633 28.7881C140.166 28.5101 140.772 28.3711 141.451 28.3711C141.825 28.3711 142.185 28.4098 142.531 28.4873C142.882 28.5602 143.169 28.6536 143.393 28.7676L143.051 29.7178C142.823 29.6266 142.559 29.5446 142.258 29.4717C141.962 29.3988 141.684 29.3623 141.424 29.3623C140.904 29.3623 140.471 29.474 140.125 29.6973C139.783 29.9206 139.526 30.2487 139.353 30.6816C139.184 31.1146 139.1 31.6478 139.1 32.2812C139.1 32.8874 139.182 33.4046 139.346 33.833C139.514 34.2614 139.763 34.5895 140.091 34.8174C140.424 35.0407 140.838 35.1523 141.335 35.1523C141.731 35.1523 142.089 35.1113 142.408 35.0293C142.727 34.9427 143.017 34.8424 143.276 34.7285V35.7402C143.026 35.8678 142.745 35.9658 142.436 36.0342C142.13 36.1025 141.766 36.1367 141.342 36.1367ZM149.9 33.9492C149.9 34.4277 149.78 34.8311 149.538 35.1592C149.301 35.4827 148.959 35.7266 148.513 35.8906C148.071 36.0547 147.542 36.1367 146.927 36.1367C146.403 36.1367 145.949 36.0957 145.566 36.0137C145.184 35.9316 144.849 35.8154 144.562 35.665V34.6191C144.867 34.7695 145.231 34.9062 145.655 35.0293C146.079 35.1523 146.512 35.2139 146.954 35.2139C147.601 35.2139 148.071 35.109 148.362 34.8994C148.654 34.6898 148.8 34.4049 148.8 34.0449C148.8 33.8398 148.741 33.6598 148.622 33.5049C148.508 33.3454 148.314 33.1927 148.041 33.0469C147.768 32.8965 147.389 32.7324 146.906 32.5547C146.428 32.3724 146.013 32.1924 145.662 32.0146C145.316 31.8324 145.047 31.6113 144.855 31.3516C144.669 31.0918 144.575 30.7546 144.575 30.3398C144.575 29.7064 144.83 29.221 145.341 28.8838C145.856 28.542 146.53 28.3711 147.364 28.3711C147.815 28.3711 148.237 28.4167 148.629 28.5078C149.025 28.5944 149.395 28.7129 149.736 28.8633L149.354 29.7725C149.044 29.6403 148.713 29.5286 148.362 29.4375C148.011 29.3464 147.654 29.3008 147.289 29.3008C146.765 29.3008 146.362 29.3874 146.079 29.5605C145.801 29.7337 145.662 29.9707 145.662 30.2715C145.662 30.5039 145.726 30.6953 145.854 30.8457C145.986 30.9961 146.195 31.1374 146.482 31.2695C146.77 31.4017 147.148 31.5566 147.617 31.7344C148.087 31.9076 148.492 32.0876 148.834 32.2744C149.176 32.4567 149.438 32.68 149.62 32.9443C149.807 33.2041 149.9 33.5391 149.9 33.9492ZM152.498 33.2246V32.8691C152.498 32.5046 152.532 32.1924 152.601 31.9326C152.669 31.6683 152.787 31.4222 152.956 31.1943C153.129 30.9665 153.368 30.7249 153.674 30.4697C154.029 30.1735 154.31 29.9229 154.515 29.7178C154.724 29.5081 154.875 29.2985 154.966 29.0889C155.057 28.8792 155.103 28.6263 155.103 28.3301C155.103 27.8561 154.95 27.4938 154.645 27.2432C154.339 26.988 153.909 26.8604 153.353 26.8604C152.901 26.8604 152.5 26.9173 152.149 27.0312C151.799 27.1452 151.461 27.2819 151.138 27.4414L150.741 26.5254C151.115 26.3294 151.521 26.1699 151.958 26.0469C152.396 25.9238 152.883 25.8623 153.421 25.8623C154.3 25.8623 154.982 26.0811 155.465 26.5186C155.948 26.9515 156.189 27.5485 156.189 28.3096C156.189 28.7334 156.121 29.0957 155.984 29.3965C155.848 29.6927 155.654 29.9661 155.403 30.2168C155.153 30.4629 154.856 30.7249 154.515 31.0029C154.214 31.2581 153.984 31.4837 153.824 31.6797C153.665 31.8711 153.555 32.0693 153.496 32.2744C153.437 32.4749 153.407 32.7165 153.407 32.999V33.2246H152.498ZM152.197 35.2891C152.197 34.9701 152.272 34.7445 152.423 34.6123C152.573 34.4756 152.767 34.4072 153.004 34.4072C153.227 34.4072 153.416 34.4756 153.571 34.6123C153.731 34.7445 153.811 34.9701 153.811 35.2891C153.811 35.6035 153.731 35.8337 153.571 35.9795C153.416 36.1208 153.227 36.1914 153.004 36.1914C152.767 36.1914 152.573 36.1208 152.423 35.9795C152.272 35.8337 152.197 35.6035 152.197 35.2891Z" fill="white"/>
<rect x="16" y="56" width="180" height="20" rx="5" fill="black" fill-opacity="0.4"/>
<rect x="16" y="86" width="180" height="20" rx="5" fill="black" fill-opacity="0.4"/>
<rect x="16" y="116" width="180" height="20" rx="5" fill="black" fill-opacity="0.4"/>
<circle cx="21" cy="21" r="5" fill="black" fill-opacity="0.4"/>
<g filter="url(#filter1_d_336_6)">
<rect x="36" y="41" width="200" height="150" rx="10" fill="#173F5F"/>
</g>
<rect x="46" y="91" width="180" height="20" rx="5" fill="black" fill-opacity="0.4"/>
<rect x="46" y="121" width="180" height="20" rx="5" fill="black" fill-opacity="0.4"/>
<rect x="46" y="151" width="180" height="20" rx="5" fill="black" fill-opacity="0.4"/>
<path d="M80.5332 62.0059L77.8604 72H76.6914L74.709 65.2734C74.6497 65.082 74.5928 64.8906 74.5381 64.6992C74.488 64.5033 74.4401 64.3187 74.3945 64.1455C74.349 63.9678 74.3102 63.8128 74.2783 63.6807C74.251 63.5439 74.2305 63.4414 74.2168 63.373C74.2077 63.4414 74.1895 63.5417 74.1621 63.6738C74.1393 63.806 74.1074 63.9587 74.0664 64.1318C74.0299 64.305 73.9844 64.4896 73.9297 64.6855C73.8796 64.8815 73.8249 65.0798 73.7656 65.2803L71.8379 72H70.6689L68.0166 62.0059H69.2266L70.833 68.2744C70.8877 68.484 70.9378 68.6914 70.9834 68.8965C71.0335 69.097 71.0768 69.293 71.1133 69.4844C71.1543 69.6758 71.1908 69.8626 71.2227 70.0449C71.2546 70.2272 71.2842 70.4049 71.3115 70.5781C71.3343 70.4004 71.3639 70.2158 71.4004 70.0244C71.4368 69.8285 71.4756 69.6302 71.5166 69.4297C71.5622 69.2292 71.61 69.0264 71.6602 68.8213C71.7148 68.6162 71.7718 68.4111 71.8311 68.2061L73.6289 62.0059H74.8252L76.6982 68.2539C76.762 68.4681 76.8213 68.68 76.876 68.8896C76.9307 69.0993 76.9785 69.3044 77.0195 69.5049C77.0651 69.7008 77.1038 69.89 77.1357 70.0723C77.1722 70.25 77.2041 70.4186 77.2314 70.5781C77.2633 70.3548 77.3021 70.1201 77.3477 69.874C77.3932 69.6279 77.4456 69.3704 77.5049 69.1016C77.5687 68.8327 77.637 68.5547 77.71 68.2676L79.3164 62.0059H80.5332ZM83.0762 61.3633V64.542C83.0762 64.7243 83.0716 64.9089 83.0625 65.0957C83.0534 65.278 83.0374 65.4466 83.0146 65.6016H83.0898C83.2448 65.3372 83.4408 65.1162 83.6777 64.9385C83.9193 64.7562 84.1927 64.6195 84.498 64.5283C84.8034 64.4326 85.127 64.3848 85.4688 64.3848C86.0703 64.3848 86.5716 64.4805 86.9727 64.6719C87.3783 64.8633 87.6813 65.1595 87.8818 65.5605C88.0869 65.9616 88.1895 66.4811 88.1895 67.1191V72H87.0684V67.1943C87.0684 66.57 86.9248 66.1029 86.6377 65.793C86.3551 65.4831 85.9199 65.3281 85.332 65.3281C84.776 65.3281 84.3317 65.4352 83.999 65.6494C83.6709 65.859 83.4339 66.1689 83.2881 66.5791C83.1468 66.9893 83.0762 67.4906 83.0762 68.083V72H81.9414V61.3633H83.0762ZM93.3301 64.3848C94.2233 64.3848 94.8864 64.5853 95.3193 64.9863C95.7523 65.3874 95.9688 66.0277 95.9688 66.9072V72H95.1416L94.9229 70.8926H94.8682C94.6585 71.166 94.4398 71.3962 94.2119 71.583C93.984 71.7653 93.7197 71.9043 93.4189 72C93.1227 72.0911 92.7581 72.1367 92.3252 72.1367C91.8695 72.1367 91.4639 72.057 91.1084 71.8975C90.7575 71.738 90.4795 71.4964 90.2744 71.1729C90.0739 70.8493 89.9736 70.4391 89.9736 69.9424C89.9736 69.195 90.2699 68.6208 90.8623 68.2197C91.4548 67.8187 92.3571 67.5999 93.5693 67.5635L94.8613 67.5088V67.0508C94.8613 66.4036 94.7223 65.9502 94.4443 65.6904C94.1663 65.4307 93.7744 65.3008 93.2686 65.3008C92.8766 65.3008 92.5029 65.3577 92.1475 65.4717C91.792 65.5856 91.4548 65.7201 91.1357 65.875L90.7871 65.0137C91.1243 64.8405 91.5117 64.6924 91.9492 64.5693C92.3867 64.4463 92.847 64.3848 93.3301 64.3848ZM94.8477 68.3086L93.7061 68.3564C92.7718 68.3929 92.1133 68.5456 91.7305 68.8145C91.3477 69.0833 91.1562 69.4639 91.1562 69.9561C91.1562 70.3844 91.2861 70.7012 91.5459 70.9062C91.8057 71.1113 92.1497 71.2139 92.5781 71.2139C93.2435 71.2139 93.7881 71.0293 94.2119 70.6602C94.6357 70.291 94.8477 69.7373 94.8477 68.999V68.3086ZM100.727 71.207C100.913 71.207 101.105 71.1911 101.301 71.1592C101.497 71.1273 101.656 71.0885 101.779 71.043V71.9248C101.647 71.984 101.463 72.0342 101.226 72.0752C100.993 72.1162 100.765 72.1367 100.542 72.1367C100.146 72.1367 99.7855 72.0684 99.4619 71.9316C99.1383 71.7904 98.8786 71.5534 98.6826 71.2207C98.4912 70.888 98.3955 70.4277 98.3955 69.8398V65.3965H97.3291V64.8428L98.4023 64.3984L98.8535 62.7715H99.5371V64.5078H101.731V65.3965H99.5371V69.8057C99.5371 70.2751 99.6442 70.626 99.8584 70.8584C100.077 71.0908 100.367 71.207 100.727 71.207ZM109.736 64.3848C110.63 64.3848 111.293 64.5853 111.726 64.9863C112.159 65.3874 112.375 66.0277 112.375 66.9072V72H111.548L111.329 70.8926H111.274C111.065 71.166 110.846 71.3962 110.618 71.583C110.39 71.7653 110.126 71.9043 109.825 72C109.529 72.0911 109.164 72.1367 108.731 72.1367C108.276 72.1367 107.87 72.057 107.515 71.8975C107.164 71.738 106.886 71.4964 106.681 71.1729C106.48 70.8493 106.38 70.4391 106.38 69.9424C106.38 69.195 106.676 68.6208 107.269 68.2197C107.861 67.8187 108.763 67.5999 109.976 67.5635L111.268 67.5088V67.0508C111.268 66.4036 111.129 65.9502 110.851 65.6904C110.573 65.4307 110.181 65.3008 109.675 65.3008C109.283 65.3008 108.909 65.3577 108.554 65.4717C108.198 65.5856 107.861 65.7201 107.542 65.875L107.193 65.0137C107.531 64.8405 107.918 64.6924 108.355 64.5693C108.793 64.4463 109.253 64.3848 109.736 64.3848ZM111.254 68.3086L110.112 68.3564C109.178 68.3929 108.52 68.5456 108.137 68.8145C107.754 69.0833 107.562 69.4639 107.562 69.9561C107.562 70.3844 107.692 70.7012 107.952 70.9062C108.212 71.1113 108.556 71.2139 108.984 71.2139C109.65 71.2139 110.194 71.0293 110.618 70.6602C111.042 70.291 111.254 69.7373 111.254 68.999V68.3086ZM118.117 64.3711C118.268 64.3711 118.425 64.3802 118.589 64.3984C118.753 64.4121 118.899 64.4326 119.026 64.46L118.883 65.5127C118.76 65.4808 118.623 65.4557 118.473 65.4375C118.322 65.4193 118.181 65.4102 118.049 65.4102C117.748 65.4102 117.463 65.4717 117.194 65.5947C116.93 65.7132 116.698 65.8864 116.497 66.1143C116.297 66.3376 116.139 66.6087 116.025 66.9277C115.911 67.2422 115.854 67.5931 115.854 67.9805V72H114.713V64.5078H115.656L115.779 65.8887H115.827C115.982 65.6107 116.169 65.3577 116.388 65.1299C116.606 64.8975 116.859 64.7129 117.146 64.5762C117.438 64.4395 117.762 64.3711 118.117 64.3711ZM123.326 64.3711C123.964 64.3711 124.511 64.5124 124.967 64.7949C125.423 65.0775 125.771 65.474 126.013 65.9844C126.254 66.4902 126.375 67.0827 126.375 67.7617V68.4658H121.2C121.214 69.3454 121.433 70.0153 121.856 70.4756C122.28 70.9359 122.877 71.166 123.647 71.166C124.121 71.166 124.541 71.1227 124.905 71.0361C125.27 70.9495 125.648 70.8219 126.04 70.6533V71.6514C125.662 71.82 125.286 71.943 124.912 72.0205C124.543 72.098 124.105 72.1367 123.6 72.1367C122.88 72.1367 122.251 71.9909 121.713 71.6992C121.18 71.403 120.765 70.9701 120.469 70.4004C120.173 69.8307 120.024 69.1335 120.024 68.3086C120.024 67.502 120.159 66.8047 120.428 66.2168C120.701 65.6243 121.084 65.1686 121.576 64.8496C122.073 64.5306 122.656 64.3711 123.326 64.3711ZM123.312 65.3008C122.706 65.3008 122.223 65.499 121.863 65.8955C121.503 66.292 121.289 66.8457 121.221 67.5566H125.186C125.181 67.11 125.11 66.7181 124.974 66.3809C124.841 66.0391 124.639 65.7747 124.365 65.5879C124.092 65.3965 123.741 65.3008 123.312 65.3008ZM130.757 64.5078H131.974L133.628 68.8555C133.724 69.1107 133.812 69.3568 133.895 69.5938C133.977 69.8262 134.049 70.0495 134.113 70.2637C134.177 70.4779 134.227 70.6852 134.264 70.8857H134.312C134.375 70.6579 134.466 70.3594 134.585 69.9902C134.703 69.6165 134.831 69.236 134.968 68.8486L136.533 64.5078H137.757L134.496 73.1006C134.323 73.5609 134.12 73.9619 133.888 74.3037C133.66 74.6455 133.382 74.9076 133.054 75.0898C132.726 75.2767 132.329 75.3701 131.864 75.3701C131.65 75.3701 131.461 75.3564 131.297 75.3291C131.133 75.3063 130.992 75.279 130.873 75.2471V74.3379C130.973 74.3607 131.094 74.3812 131.235 74.3994C131.381 74.4176 131.532 74.4268 131.687 74.4268C131.969 74.4268 132.213 74.3721 132.418 74.2627C132.628 74.1579 132.808 74.0029 132.958 73.7979C133.108 73.5928 133.238 73.349 133.348 73.0664L133.758 72.0137L130.757 64.5078ZM145.413 68.2402C145.413 68.8555 145.333 69.4046 145.174 69.8877C145.014 70.3708 144.784 70.7786 144.483 71.1113C144.183 71.444 143.818 71.6992 143.39 71.877C142.966 72.0501 142.485 72.1367 141.947 72.1367C141.446 72.1367 140.986 72.0501 140.566 71.877C140.152 71.6992 139.792 71.444 139.486 71.1113C139.186 70.7786 138.951 70.3708 138.782 69.8877C138.618 69.4046 138.536 68.8555 138.536 68.2402C138.536 67.4199 138.675 66.7227 138.953 66.1484C139.231 65.5697 139.628 65.1299 140.143 64.8291C140.662 64.5238 141.28 64.3711 141.995 64.3711C142.679 64.3711 143.276 64.5238 143.786 64.8291C144.301 65.1344 144.7 65.5765 144.982 66.1553C145.27 66.7295 145.413 67.4245 145.413 68.2402ZM139.712 68.2402C139.712 68.8418 139.792 69.3636 139.951 69.8057C140.111 70.2477 140.357 70.5895 140.689 70.8311C141.022 71.0726 141.451 71.1934 141.975 71.1934C142.494 71.1934 142.92 71.0726 143.253 70.8311C143.59 70.5895 143.839 70.2477 143.998 69.8057C144.158 69.3636 144.237 68.8418 144.237 68.2402C144.237 67.6432 144.158 67.1283 143.998 66.6953C143.839 66.2578 143.592 65.9206 143.26 65.6836C142.927 65.4466 142.496 65.3281 141.968 65.3281C141.188 65.3281 140.617 65.5856 140.252 66.1006C139.892 66.6156 139.712 67.3288 139.712 68.2402ZM153.562 64.5078V72H152.632L152.468 70.9473H152.406C152.251 71.207 152.051 71.4258 151.805 71.6035C151.559 71.7812 151.281 71.9134 150.971 72C150.665 72.0911 150.34 72.1367 149.993 72.1367C149.401 72.1367 148.904 72.041 148.503 71.8496C148.102 71.6582 147.799 71.362 147.594 70.9609C147.393 70.5599 147.293 70.0449 147.293 69.416V64.5078H148.441V69.334C148.441 69.9583 148.583 70.4255 148.865 70.7354C149.148 71.0407 149.578 71.1934 150.157 71.1934C150.713 71.1934 151.155 71.0885 151.483 70.8789C151.816 70.6693 152.055 70.3617 152.201 69.9561C152.347 69.5459 152.42 69.0446 152.42 68.4521V64.5078H153.562ZM159.365 64.3711C159.516 64.3711 159.673 64.3802 159.837 64.3984C160.001 64.4121 160.147 64.4326 160.274 64.46L160.131 65.5127C160.008 65.4808 159.871 65.4557 159.721 65.4375C159.57 65.4193 159.429 65.4102 159.297 65.4102C158.996 65.4102 158.711 65.4717 158.442 65.5947C158.178 65.7132 157.946 65.8864 157.745 66.1143C157.545 66.3376 157.387 66.6087 157.273 66.9277C157.16 67.2422 157.103 67.5931 157.103 67.9805V72H155.961V64.5078H156.904L157.027 65.8887H157.075C157.23 65.6107 157.417 65.3577 157.636 65.1299C157.854 64.8975 158.107 64.7129 158.395 64.5762C158.686 64.4395 159.01 64.3711 159.365 64.3711ZM167.418 75.3633C166.434 75.3633 165.675 75.1787 165.142 74.8096C164.608 74.445 164.342 73.9323 164.342 73.2715C164.342 72.8021 164.49 72.401 164.786 72.0684C165.087 71.7357 165.502 71.5146 166.03 71.4053C165.834 71.3141 165.666 71.1774 165.524 70.9951C165.388 70.8128 165.319 70.6032 165.319 70.3662C165.319 70.0928 165.395 69.8535 165.545 69.6484C165.7 69.4388 165.935 69.2383 166.249 69.0469C165.857 68.8874 165.538 68.6185 165.292 68.2402C165.05 67.8574 164.93 67.4131 164.93 66.9072C164.93 66.3695 165.041 65.9115 165.265 65.5332C165.488 65.1504 165.812 64.8587 166.235 64.6582C166.659 64.4577 167.172 64.3574 167.773 64.3574C167.906 64.3574 168.038 64.3643 168.17 64.3779C168.307 64.387 168.437 64.403 168.56 64.4258C168.683 64.444 168.79 64.4668 168.881 64.4941H171.451V65.2256L170.07 65.3965C170.207 65.5742 170.321 65.7884 170.412 66.0391C170.503 66.2897 170.549 66.5677 170.549 66.873C170.549 67.6204 170.296 68.2152 169.79 68.6572C169.284 69.0947 168.589 69.3135 167.705 69.3135C167.495 69.3135 167.281 69.2952 167.062 69.2588C166.839 69.3818 166.668 69.5186 166.55 69.6689C166.436 69.8193 166.379 69.9925 166.379 70.1885C166.379 70.3343 166.422 70.4505 166.509 70.5371C166.6 70.6237 166.73 70.6875 166.898 70.7285C167.067 70.765 167.27 70.7832 167.507 70.7832H168.826C169.642 70.7832 170.266 70.9541 170.699 71.2959C171.137 71.6377 171.355 72.1367 171.355 72.793C171.355 73.6224 171.018 74.2581 170.344 74.7002C169.669 75.1423 168.694 75.3633 167.418 75.3633ZM167.452 74.4746C168.072 74.4746 168.585 74.4108 168.99 74.2832C169.4 74.1602 169.706 73.9801 169.906 73.7432C170.111 73.5107 170.214 73.2327 170.214 72.9092C170.214 72.6084 170.146 72.3805 170.009 72.2256C169.872 72.0752 169.672 71.9749 169.407 71.9248C169.143 71.8701 168.819 71.8428 168.437 71.8428H167.138C166.8 71.8428 166.507 71.8952 166.256 72C166.005 72.1048 165.812 72.2598 165.675 72.4648C165.543 72.6699 165.477 72.9251 165.477 73.2305C165.477 73.6361 165.647 73.9437 165.989 74.1533C166.331 74.3675 166.819 74.4746 167.452 74.4746ZM167.746 68.4863C168.288 68.4863 168.696 68.3496 168.97 68.0762C169.243 67.8027 169.38 67.404 169.38 66.8799C169.38 66.3193 169.241 65.9001 168.963 65.6221C168.685 65.3395 168.275 65.1982 167.732 65.1982C167.213 65.1982 166.812 65.3441 166.529 65.6357C166.251 65.9229 166.112 66.3444 166.112 66.9004C166.112 67.4108 166.254 67.8027 166.536 68.0762C166.819 68.3496 167.222 68.4863 167.746 68.4863ZM179.388 68.2402C179.388 68.8555 179.308 69.4046 179.148 69.8877C178.989 70.3708 178.759 70.7786 178.458 71.1113C178.157 71.444 177.793 71.6992 177.364 71.877C176.94 72.0501 176.46 72.1367 175.922 72.1367C175.421 72.1367 174.96 72.0501 174.541 71.877C174.126 71.6992 173.766 71.444 173.461 71.1113C173.16 70.7786 172.925 70.3708 172.757 69.8877C172.593 69.4046 172.511 68.8555 172.511 68.2402C172.511 67.4199 172.65 66.7227 172.928 66.1484C173.206 65.5697 173.602 65.1299 174.117 64.8291C174.637 64.5238 175.254 64.3711 175.97 64.3711C176.653 64.3711 177.25 64.5238 177.761 64.8291C178.276 65.1344 178.674 65.5765 178.957 66.1553C179.244 66.7295 179.388 67.4245 179.388 68.2402ZM173.687 68.2402C173.687 68.8418 173.766 69.3636 173.926 69.8057C174.085 70.2477 174.331 70.5895 174.664 70.8311C174.997 71.0726 175.425 71.1934 175.949 71.1934C176.469 71.1934 176.895 71.0726 177.228 70.8311C177.565 70.5895 177.813 70.2477 177.973 69.8057C178.132 69.3636 178.212 68.8418 178.212 68.2402C178.212 67.6432 178.132 67.1283 177.973 66.6953C177.813 66.2578 177.567 65.9206 177.234 65.6836C176.902 65.4466 176.471 65.3281 175.942 65.3281C175.163 65.3281 174.591 65.5856 174.227 66.1006C173.867 66.6156 173.687 67.3288 173.687 68.2402ZM184.152 64.3848C185.046 64.3848 185.709 64.5853 186.142 64.9863C186.575 65.3874 186.791 66.0277 186.791 66.9072V72H185.964L185.745 70.8926H185.69C185.481 71.166 185.262 71.3962 185.034 71.583C184.806 71.7653 184.542 71.9043 184.241 72C183.945 72.0911 183.58 72.1367 183.147 72.1367C182.692 72.1367 182.286 72.057 181.931 71.8975C181.58 71.738 181.302 71.4964 181.097 71.1729C180.896 70.8493 180.796 70.4391 180.796 69.9424C180.796 69.195 181.092 68.6208 181.685 68.2197C182.277 67.8187 183.179 67.5999 184.392 67.5635L185.684 67.5088V67.0508C185.684 66.4036 185.545 65.9502 185.267 65.6904C184.989 65.4307 184.597 65.3008 184.091 65.3008C183.699 65.3008 183.325 65.3577 182.97 65.4717C182.614 65.5856 182.277 65.7201 181.958 65.875L181.609 65.0137C181.947 64.8405 182.334 64.6924 182.771 64.5693C183.209 64.4463 183.669 64.3848 184.152 64.3848ZM185.67 68.3086L184.528 68.3564C183.594 68.3929 182.936 68.5456 182.553 68.8145C182.17 69.0833 181.979 69.4639 181.979 69.9561C181.979 70.3844 182.108 70.7012 182.368 70.9062C182.628 71.1113 182.972 71.2139 183.4 71.2139C184.066 71.2139 184.61 71.0293 185.034 70.6602C185.458 70.291 185.67 69.7373 185.67 68.999V68.3086ZM190.271 72H189.129V61.3633H190.271V72ZM197.517 69.9492C197.517 70.4277 197.396 70.8311 197.154 71.1592C196.917 71.4827 196.576 71.7266 196.129 71.8906C195.687 72.0547 195.158 72.1367 194.543 72.1367C194.019 72.1367 193.565 72.0957 193.183 72.0137C192.8 71.9316 192.465 71.8154 192.178 71.665V70.6191C192.483 70.7695 192.848 70.9062 193.271 71.0293C193.695 71.1523 194.128 71.2139 194.57 71.2139C195.217 71.2139 195.687 71.109 195.979 70.8994C196.27 70.6898 196.416 70.4049 196.416 70.0449C196.416 69.8398 196.357 69.6598 196.238 69.5049C196.124 69.3454 195.931 69.1927 195.657 69.0469C195.384 68.8965 195.006 68.7324 194.522 68.5547C194.044 68.3724 193.629 68.1924 193.278 68.0146C192.932 67.8324 192.663 67.6113 192.472 67.3516C192.285 67.0918 192.191 66.7546 192.191 66.3398C192.191 65.7064 192.447 65.221 192.957 64.8838C193.472 64.542 194.146 64.3711 194.98 64.3711C195.432 64.3711 195.853 64.4167 196.245 64.5078C196.642 64.5944 197.011 64.7129 197.353 64.8633L196.97 65.7725C196.66 65.6403 196.329 65.5286 195.979 65.4375C195.628 65.3464 195.27 65.3008 194.905 65.3008C194.381 65.3008 193.978 65.3874 193.695 65.5605C193.417 65.7337 193.278 65.9707 193.278 66.2715C193.278 66.5039 193.342 66.6953 193.47 66.8457C193.602 66.9961 193.812 67.1374 194.099 67.2695C194.386 67.4017 194.764 67.5566 195.233 67.7344C195.703 67.9076 196.108 68.0876 196.45 68.2744C196.792 68.4567 197.054 68.68 197.236 68.9443C197.423 69.2041 197.517 69.5391 197.517 69.9492ZM200.114 69.2246V68.8691C200.114 68.5046 200.148 68.1924 200.217 67.9326C200.285 67.6683 200.404 67.4222 200.572 67.1943C200.745 66.9665 200.985 66.7249 201.29 66.4697C201.646 66.1735 201.926 65.9229 202.131 65.7178C202.34 65.5081 202.491 65.2985 202.582 65.0889C202.673 64.8792 202.719 64.6263 202.719 64.3301C202.719 63.8561 202.566 63.4938 202.261 63.2432C201.955 62.988 201.525 62.8604 200.969 62.8604C200.518 62.8604 200.117 62.9173 199.766 63.0312C199.415 63.1452 199.077 63.2819 198.754 63.4414L198.357 62.5254C198.731 62.3294 199.137 62.1699 199.574 62.0469C200.012 61.9238 200.499 61.8623 201.037 61.8623C201.917 61.8623 202.598 62.0811 203.081 62.5186C203.564 62.9515 203.806 63.5485 203.806 64.3096C203.806 64.7334 203.737 65.0957 203.601 65.3965C203.464 65.6927 203.27 65.9661 203.02 66.2168C202.769 66.4629 202.473 66.7249 202.131 67.0029C201.83 67.2581 201.6 67.4837 201.44 67.6797C201.281 67.8711 201.172 68.0693 201.112 68.2744C201.053 68.4749 201.023 68.7165 201.023 68.999V69.2246H200.114ZM199.813 71.2891C199.813 70.9701 199.889 70.7445 200.039 70.6123C200.189 70.4756 200.383 70.4072 200.62 70.4072C200.843 70.4072 201.033 70.4756 201.188 70.6123C201.347 70.7445 201.427 70.9701 201.427 71.2891C201.427 71.6035 201.347 71.8337 201.188 71.9795C201.033 72.1208 200.843 72.1914 200.62 72.1914C200.383 72.1914 200.189 72.1208 200.039 71.9795C199.889 71.8337 199.813 71.6035 199.813 71.2891Z" fill="white"/>
<circle cx="51" cy="56" r="5" fill="black" fill-opacity="0.4"/>
<defs>
<filter id="filter0_d_336_6" x="0" y="0" width="208" height="158" filterUnits="userSpaceOnUse" color-interpolation-filters="sRGB">
<feFlood flood-opacity="0" result="BackgroundImageFix"/>
<feColorMatrix in="SourceAlpha" type="matrix" values="0 0 0 0 0 0 0 0 0 0 0 0 0 0 0 0 0 0 127 0" result="hardAlpha"/>
<feOffset dx="-2" dy="-2"/>
<feGaussianBlur stdDeviation="2"/>
<feComposite in2="hardAlpha" operator="out"/>
<feColorMatrix type="matrix" values="0 0 0 0 0 0 0 0 0 0 0 0 0 0 0 0 0 0 0.25 0"/>
<feBlend mode="normal" in2="BackgroundImageFix" result="effect1_dropShadow_336_6"/>
<feBlend mode="normal" in="SourceGraphic" in2="effect1_dropShadow_336_6" result="shape"/>
</filter>
<filter id="filter1_d_336_6" x="30" y="35" width="208" height="158" filterUnits="userSpaceOnUse" color-interpolation-filters="sRGB">
<feFlood flood-opacity="0" result="BackgroundImageFix"/>
<feColorMatrix in="SourceAlpha" type="matrix" values="0 0 0 0 0 0 0 0 0 0 0 0 0 0 0 0 0 0 127 0" result="hardAlpha"/>
<feOffset dx="-2" dy="-2"/>
<feGaussianBlur stdDeviation="2"/>
<feComposite in2="hardAlpha" operator="out"/>
<feColorMatrix type="matrix" values="0 0 0 0 0 0 0 0 0 0 0 0 0 0 0 0 0 0 0.25 0"/>
<feBlend mode="normal" in2="BackgroundImageFix" result="effect1_dropShadow_336_6"/>
<feBlend mode="normal" in="SourceGraphic" in2="effect1_dropShadow_336_6" result="shape"/>
</filter>
</defs>
</svg>
